<?xml version="1.0" standalone="no"?>
<!DOCTYPE svg PUBLIC "-//W3C//DTD SVG 20010904//EN"
 "http://www.w3.org/TR/2001/REC-SVG-20010904/DTD/svg10.dtd">
<svg version="1.0" xmlns="http://www.w3.org/2000/svg"
 width="1024.000000pt" height="1024.000000pt" viewBox="0 0 1024.000000 1024.000000"
 preserveAspectRatio="xMidYMid meet">
<metadata>
Created by potrace 1.14, written by Peter Selinger 2001-2017
</metadata>
<g transform="translate(0.000000,1024.000000) scale(0.100000,-0.100000)"
fill="#000000" stroke="none">
<path d="M4720 8699 c-212 -214 -432 -438 -490 -497 -57 -59 -242 -246 -410
-417 -270 -273 -480 -500 -480 -519 0 -3 7 -6 15 -6 21 0 95 -37 120 -61 20
-18 27 -11 488 448 257 256 471 462 475 458 4 -4 -206 -218 -467 -476 -285
-283 -470 -474 -465 -479 5 -5 44 -10 86 -11 l77 -2 57 49 c31 27 357 352 724
722 l666 673 1110 -1110 c610 -610 1166 -1167 1235 -1237 l126 -129 22 -170
c13 -93 25 -189 28 -212 5 -41 4 -43 -19 -43 -14 0 -50 -5 -81 -11 l-55 -11 5
-37 c3 -20 8 -39 12 -42 3 -4 39 -3 80 2 40 6 75 8 76 7 2 -2 6 -30 10 -63 3
-33 8 -75 11 -93 3 -19 0 -40 -7 -48 -10 -12 -9 -13 5 -8 12 5 16 0 16 -19 0
-24 -3 -25 -45 -23 -29 2 -45 -2 -45 -10 0 -8 39 -11 145 -11 80 0 145 4 145
9 0 8 -20 11 -57 8 -18 -1 -23 4 -23 23 0 14 6 28 13 30 7 3 5 6 -5 6 -21 1
-25 37 -5 44 7 3 4 6 -7 6 -13 1 -17 6 -13 22 3 11 2 32 -3 47 -5 15 -11 47
-14 72 -3 25 -17 121 -30 215 -14 93 -24 170 -23 172 2 1 201 -196 443 -438
241 -243 449 -451 462 -463 l23 -22 -172 -180 c-94 -98 -203 -210 -240 -249
l-69 -70 0 -172 c0 -202 -10 -289 -51 -438 -39 -142 -169 -407 -169 -345 0 20
-51 87 -75 100 l-25 13 49 51 c58 62 64 86 86 310 17 181 19 266 6 266 -5 0
-92 -86 -193 -191 -100 -105 -230 -236 -287 -292 -57 -56 -196 -195 -308 -309
l-205 -206 -46 24 c-92 49 -213 19 -279 -70 -18 -23 -33 -49 -33 -57 0 -12
-11 -13 -69 -5 -61 8 -75 7 -123 -13 -94 -38 -148 -113 -148 -207 0 -71 20
-124 65 -170 l40 -43 -22 -27 c-23 -29 -43 -95 -43 -142 0 -91 75 -188 167
-215 74 -22 160 -1 207 52 l19 21 29 -25 c16 -14 33 -25 38 -25 5 0 12 -17 16
-37 8 -44 26 -75 66 -119 l29 -31 -57 -64 c-98 -112 -260 -259 -227 -207 7 13
90 210 99 238 7 21 -78 64 -95 47 -6 -6 -11 -15 -11 -19 0 -11 -113 -275 -146
-343 -27 -54 -66 -82 -229 -163 -129 -64 -394 -141 -486 -142 -35 0 -27 9 353
387 213 213 387 391 386 395 -2 4 -28 20 -58 35 -79 40 -114 102 -129 226 l-6
47 -526 -527 c-289 -291 -554 -559 -590 -596 l-64 -68 -457 456 -457 456 -168
-3 c-92 -1 -203 1 -245 6 -46 5 -78 5 -78 0 0 -14 1394 -1404 1407 -1404 6 0
20 10 31 23 10 12 96 98 190 191 l171 169 153 8 c181 9 271 26 432 80 242 83
447 211 642 401 l111 108 6 -68 c7 -86 24 -129 72 -176 33 -33 161 -103 223
-121 20 -6 22 -3 22 27 0 18 3 56 6 84 9 76 -11 156 -52 210 -28 37 -30 42
-11 29 57 -37 196 -18 252 35 l25 23 23 -20 c83 -77 228 -73 304 9 47 50 67
149 44 211 -9 23 -7 25 22 31 17 4 48 17 68 31 20 13 39 21 42 18 3 -3 17 -29
32 -59 33 -67 102 -139 158 -164 69 -32 297 -20 297 15 0 22 -42 109 -78 160
-45 65 -83 95 -146 117 -62 21 -115 22 -184 4 -29 -7 -52 -11 -52 -9 0 2 6 14
13 26 52 86 -44 246 -167 279 l-42 11 10 48 c14 69 -11 145 -63 192 -36 32
-92 57 -130 57 -8 0 -12 3 -9 6 3 3 31 1 61 -5 61 -11 115 -1 143 26 13 13 19
14 33 5 72 -53 132 -71 185 -58 36 9 87 55 102 93 16 38 18 116 4 143 -8 16
-5 22 20 37 52 30 85 89 84 147 -1 64 -24 109 -73 142 l-39 26 31 44 31 44
130 0 c142 1 183 10 242 55 50 39 95 120 120 220 l6 25 -109 0 c-91 0 -115 -3
-148 -21 -58 -30 -109 -83 -135 -140 -19 -39 -28 -49 -48 -49 -19 0 -23 4 -17
18 20 47 66 202 71 237 4 22 13 51 22 65 8 14 217 228 463 475 246 248 459
465 474 482 l27 33 -20 27 c-11 16 -92 98 -179 183 -441 432 -1333 1321 -1333
1329 0 8 66 71 74 71 2 0 20 -7 39 -15 69 -29 158 -15 210 33 l27 26 28 -26
c50 -47 80 -61 136 -61 63 -1 123 23 149 58 22 31 35 99 26 148 -6 35 -4 39
25 51 38 16 81 61 95 99 34 88 -25 193 -119 213 -24 5 -25 9 -25 74 0 73 -14
103 -67 143 -59 44 -179 36 -223 -16 l-20 -24 -49 25 c-92 46 -204 26 -253
-47 -38 -56 -41 -137 -8 -213 5 -13 1 -20 -17 -27 -39 -15 -78 -68 -78 -106 0
-27 8 -40 42 -69 l42 -36 -12 -45 c-6 -24 -9 -51 -6 -59 6 -16 -89 -126 -100
-116 -2 3 -12 59 -21 125 -30 219 -34 250 -40 290 -3 22 -8 45 -10 52 -2 6 7
33 21 60 42 85 28 174 -37 233 -20 19 -29 38 -34 75 -4 28 -9 57 -11 66 -3 11
3 19 19 23 41 10 97 81 97 121 0 33 2 35 31 35 79 0 149 78 149 164 0 84 -55
149 -134 161 -35 6 -43 10 -39 25 12 46 -63 126 -128 136 l-40 7 22 20 c30 28
49 79 49 130 0 48 -65 192 -87 192 -19 0 -123 -105 -142 -144 -42 -82 -36
-134 23 -214 14 -19 17 -30 10 -35 -17 -11 -44 -68 -44 -92 0 -18 -5 -21 -32
-18 -30 3 -33 7 -51 68 -12 41 -30 77 -50 98 -39 40 -115 69 -193 74 l-59 3 3
-50 c4 -61 26 -142 48 -173 32 -45 89 -72 153 -72 l60 0 -24 -36 c-66 -97 -11
-218 109 -243 24 -5 31 -14 43 -53 12 -41 58 -97 91 -109 5 -2 11 -28 14 -57
l5 -52 -41 -11 c-59 -16 -123 -84 -131 -141 -7 -47 -4 -97 7 -113 57 -80 127
-121 188 -109 32 7 31 9 50 -131 6 -44 13 -91 16 -105 19 -110 34 -117 -167
77 -101 98 -630 624 -1175 1170 -546 546 -998 993 -1005 992 -8 -1 -187 -176
-399 -390z m1100 -491 c0 -9 -14 -26 -30 -38 l-30 -22 -298 294 c-163 161
-305 303 -316 316 l-19 24 -314 -314 c-173 -172 -316 -315 -318 -316 -5 -6
-63 39 -69 53 -2 6 153 169 344 362 l348 351 351 -347 c193 -191 351 -355 351
-363z m1645 -92 c19 -14 19 -15 1 -35 -14 -15 -22 -18 -32 -10 -8 7 -14 7 -19
-1 -10 -16 -42 -12 -49 6 -15 40 58 70 99 40z m-1026 -626 c337 -336 612 -613
609 -615 -3 -3 -1229 1217 -1248 1243 -20 26 97 -89 639 -628z m844 474 c9
-10 -12 -45 -26 -43 -7 1 -19 1 -27 0 -13 -1 -13 -2 0 -11 12 -8 10 -10 -8
-10 -13 0 -20 -4 -17 -10 3 -6 -1 -7 -9 -4 -9 3 -16 8 -16 11 0 35 82 88 103
67z m392 -64 c12 -19 -4 -25 -59 -22 -40 3 -56 8 -56 18 0 17 105 20 115 4z
m-210 -220 c0 -17 -37 -25 -63 -15 -15 5 -13 9 8 21 30 17 55 14 55 -6z m-11
-341 c14 -11 26 -25 26 -31 0 -7 -11 -1 -24 11 -20 18 -30 21 -62 15 -22 -3
-51 -18 -66 -32 -23 -21 -28 -23 -28 -8 0 9 12 28 26 41 34 32 91 33 128 4z
m766 -34 c0 -6 -126 -65 -137 -65 -15 0 51 59 71 63 33 7 66 8 66 2z m-276
-25 c40 -15 30 -28 -12 -17 -33 9 -43 7 -65 -9 -14 -10 -30 -28 -36 -39 -9
-18 -10 -18 -10 8 -2 55 57 82 123 57z m456 -270 c12 -8 11 -10 -7 -10 -13 0
-23 5 -23 10 0 13 11 13 30 0z m-1315 -160 c10 -11 16 -20 13 -20 -3 0 -13 9
-23 20 -10 11 -16 20 -13 20 3 0 13 -9 23 -20z m830 -120 c4 -6 -8 -10 -29
-10 -19 0 -38 5 -41 10 -4 6 8 10 29 10 19 0 38 -4 41 -10z m339 1 c10 -15
-18 -41 -33 -32 -12 8 -12 12 -2 25 15 18 27 20 35 7z m-440 -3116 c18 -14 17
-15 -25 -15 -43 -1 -85 -20 -72 -33 3 -4 1 -7 -5 -7 -25 0 -3 39 33 58 27 15
46 14 69 -3z m-211 -45 c-4 -14 -14 -20 -32 -20 -51 0 -102 -21 -142 -59 l-40
-39 6 32 c11 49 58 81 145 96 68 12 69 12 63 -10z m-61 -127 c-6 -9 -18 -18
-28 -19 -16 -2 -15 0 5 17 29 23 35 24 23 2z m-627 -203 c0 -8 -10 -16 -22
-18 -16 -2 -23 2 -23 12 0 9 -5 16 -12 16 -25 0 -99 -52 -113 -80 -19 -37 -27
-38 -19 -2 8 34 41 71 77 86 36 16 112 6 112 -14z m528 0 c14 -11 30 -20 36
-20 12 0 5 -75 -11 -137 -2 -5 -26 -33 -55 -63 -29 -30 -59 -63 -66 -74 -12
-17 -14 -15 -26 24 -7 23 -29 57 -50 78 l-38 37 86 88 c47 48 88 87 92 87 3 0
18 -9 32 -20z m166 -151 c30 -25 26 -33 -6 -14 -23 13 -28 24 -30 58 l-1 42 8
-35 c5 -19 18 -42 29 -51z m-1013 16 c18 -15 18 -16 -6 -14 -59 3 -90 -2 -102
-17 -53 -64 -68 -76 -74 -60 -7 19 12 46 32 46 8 0 14 9 14 20 0 10 8 24 18
29 26 16 96 13 118 -4z m1379 -17 c-11 -6 -26 -17 -32 -26 -19 -23 -25 -9 -7
16 8 12 25 22 37 22 21 -1 22 -1 2 -12z m-872 -75 c-7 -2 -19 -2 -25 0 -7 3
-2 5 12 5 14 0 19 -2 13 -5z m82 -43 l28 -29 -42 2 c-40 1 -51 9 -30 22 7 5 5
13 -6 25 -16 18 -16 18 3 13 11 -2 32 -18 47 -33z m375 -110 c0 -5 7 -10 16
-10 9 0 14 -5 12 -12 -3 -7 -25 -12 -54 -13 -59 -2 -108 -25 -128 -63 -9 -15
-15 -23 -16 -19 -1 28 50 85 98 111 31 17 72 21 72 6z m-397 -30 c-30 -13 -43
-25 -43 -39 0 -20 -17 -38 -27 -28 -21 22 49 88 92 86 13 0 5 -7 -22 -19z
m477 -31 c0 -5 -9 -4 -19 3 -11 7 -17 16 -14 20 5 10 33 -10 33 -23z m-335
-17 c-3 -3 -16 5 -28 17 l-22 23 28 -17 c15 -10 25 -20 22 -23z m-819 -145
c18 -10 18 -31 0 -46 -12 -10 -16 -9 -23 6 -5 10 -8 24 -7 31 1 6 3 22 4 35 2
20 3 20 7 2 3 -11 11 -24 19 -28z m47 -83 c-1 -10 4 -22 10 -26 7 -5 8 -8 1
-8 -22 0 -47 27 -41 44 9 23 33 15 30 -10z m864 -30 c-3 -3 -12 -4 -19 -1 -8
3 -5 6 6 6 11 1 17 -2 13 -5z m438 -34 c3 -6 -1 -13 -9 -16 -17 -6 -22 -34 -8
-34 5 0 9 -7 9 -15 0 -21 -21 -19 -42 5 -17 18 -17 21 -1 45 17 26 40 33 51
15z m-856 -23 c25 -27 21 -48 -14 -71 -19 -13 -24 -13 -28 -1 -3 7 1 19 9 25
18 16 18 30 -1 30 -15 0 -21 21 -8 33 11 11 18 8 42 -16z m56 -387 c9 -30 24
-64 33 -74 17 -19 16 -19 -13 0 -31 21 -67 38 -99 48 -16 6 -14 11 20 49 22
23 40 40 41 37 0 -3 9 -30 18 -60z m635 50 c0 -14 -7 -20 -22 -20 -20 0 -21 1
-3 20 10 11 20 20 22 20 1 0 3 -9 3 -20z m-471 -46 c-25 -13 -35 -5 -25 22 5
12 10 13 28 3 l21 -11 -24 -14z m421 24 c0 -7 -7 -21 -15 -31 -19 -26 -46 -10
-34 21 9 23 49 32 49 10z"/>
<path d="M3837 8590 c-179 -38 -277 -131 -322 -304 -8 -33 -24 -69 -35 -81
-24 -26 -26 -53 -3 -62 9 -3 68 -1 130 6 143 14 217 45 284 118 26 27 54 64
63 80 17 35 51 155 61 221 l7 42 -49 -1 c-26 0 -87 -9 -136 -19z"/>
<path d="M2621 8507 c-54 -21 -107 -73 -137 -132 -25 -52 -26 -62 -22 -150 5
-88 4 -95 -14 -95 -69 0 -184 -102 -213 -189 -21 -63 -15 -116 20 -176 36 -60
90 -107 158 -135 57 -24 57 -24 51 -59 -4 -22 -23 -54 -48 -81 -161 -175 -339
-488 -434 -761 -69 -199 -135 -471 -155 -639 -26 -213 -29 -291 -24 -524 8
-326 14 -347 66 -226 51 118 91 200 116 239 27 40 26 32 40 291 3 58 14 160
25 228 22 141 18 134 198 350 56 67 102 129 102 137 0 18 -52 75 -69 75 -15 0
-48 -36 -109 -115 -25 -33 -42 -52 -39 -42 4 10 14 43 23 74 26 90 131 331
186 428 65 115 158 253 191 283 l25 24 29 -21 c47 -34 113 -47 175 -33 55 13
155 72 165 98 4 11 17 4 52 -29 56 -53 105 -71 187 -71 48 0 71 6 107 27 43
25 91 76 116 124 15 30 30 170 18 182 -13 13 -1 28 30 36 46 11 121 64 153
108 39 53 64 136 55 180 -22 98 -97 177 -203 212 -41 13 -52 21 -48 33 20 62
25 127 14 170 -31 125 -112 192 -232 192 -81 0 -165 -30 -212 -75 l-34 -34
-33 30 c-68 64 -200 95 -276 66z m204 -152 c19 -14 40 -36 46 -48 9 -17 4 -15
-22 10 -44 41 -116 70 -132 54 -6 -6 -12 -21 -12 -34 0 -20 -4 -22 -51 -19
l-52 4 -10 -39 c-8 -32 -10 -34 -11 -11 -1 15 3 38 9 52 8 22 16 26 48 26 33
0 39 4 49 30 l11 30 47 -14 c25 -8 61 -26 80 -41z m350 25 c13 -26 21 -30 50
-28 43 3 54 -8 61 -58 3 -30 2 -34 -5 -18 -16 35 -50 54 -78 43 -35 -13 -43
-11 -43 10 0 10 -7 25 -16 32 -14 11 -25 9 -75 -18 -33 -17 -59 -27 -59 -22 0
20 102 84 142 88 4 1 15 -13 23 -29z m-705 -390 c0 -5 -4 -10 -9 -10 -6 0 -13
5 -16 10 -3 6 1 10 9 10 9 0 16 -4 16 -10z m503 -30 c-4 -5 -31 -10 -60 -12
-42 -2 -49 -1 -40 11 6 7 20 17 32 21 23 8 81 -9 68 -20z m527 -31 c0 -6 -10
-19 -22 -28 l-21 -18 21 -21 22 -22 -22 0 c-26 0 -112 49 -87 50 8 0 30 11 49
25 36 26 60 32 60 14z m-1072 -22 c45 -25 41 -35 -24 -62 -45 -19 -58 -11 -24
15 l25 19 -22 16 c-13 9 -23 20 -23 26 0 15 26 10 68 -14z m165 -392 c4 -8 2
-17 -3 -20 -6 -4 -10 3 -10 14 0 25 6 27 13 6z m677 -50 c0 -9 -14 -17 -40
-21 -40 -6 -59 -31 -44 -55 4 -7 -1 -10 -12 -7 -14 2 -20 14 -22 45 l-3 42 55
-6 c39 -4 56 -2 56 6 0 6 2 11 5 11 3 0 5 -7 5 -15z m-560 -9 c0 -26 -13 -76
-19 -76 -4 0 -11 15 -16 33 -9 28 -15 33 -50 38 l-40 5 35 6 c68 10 90 8 90
-6z"/>
<path d="M5090 8421 c-6 -13 -10 -190 -10 -505 l0 -485 -47 -44 c-27 -25 -94
-84 -150 -132 l-103 -88 0 -176 0 -176 -75 -43 -75 -44 0 -208 0 -207 35 -24
c19 -13 35 -28 35 -32 0 -5 5 -5 10 -2 6 4 10 82 10 200 0 178 1 194 17 188
11 -5 15 -2 12 8 -4 9 50 51 163 126 l168 112 0 -619 c0 -349 4 -620 9 -620 5
0 14 7 21 15 7 9 16 12 19 7 3 -5 33 -32 66 -61 89 -79 250 -227 331 -303 39
-38 75 -68 80 -68 5 0 8 190 6 477 -1 283 1 472 7 464 7 -11 11 -10 20 5 8 15
11 16 12 4 0 -8 5 -4 9 10 4 14 8 -175 8 -420 -1 -245 -4 -429 -8 -410 l-7 35
-2 -32 c0 -17 -7 -34 -13 -36 -7 -3 -3 -6 10 -6 l22 -1 0 -190 c0 -104 -3
-190 -7 -190 -5 1 -18 9 -31 20 -21 17 -23 26 -21 108 l3 89 -39 34 c-22 19
-62 55 -90 80 -163 150 -357 319 -366 319 -5 0 -38 -26 -72 -57 -34 -32 -100
-92 -147 -133 -46 -41 -128 -115 -183 -164 l-98 -88 2 -83 c1 -45 -1 -87 -5
-94 -9 -14 -47 -34 -45 -24 1 4 1 10 -1 13 -1 3 -3 15 -6 28 -3 16 0 21 8 16
10 -6 11 -4 1 7 -15 16 -17 99 -3 99 6 0 10 8 10 18 0 14 -2 15 -10 2 -8 -12
-10 -11 -10 7 0 12 6 24 13 26 10 4 10 6 0 6 -9 1 -13 16 -12 44 l1 42 9 -32
c5 -18 14 -35 21 -39 7 -5 8 -3 2 7 -5 8 -9 236 -11 506 -1 427 0 495 13 508
14 13 11 15 -20 15 -31 0 -48 -11 -124 -82 -48 -46 -109 -102 -135 -126 l-47
-43 0 -465 c0 -255 -3 -464 -7 -464 -5 0 -93 86 -198 190 l-190 190 -97 0 -98
0 0 30 0 30 70 0 c63 0 70 2 70 19 0 11 -4 23 -10 26 -6 4 -10 211 -10 589 l0
583 -25 37 c-29 42 -30 57 -11 94 40 77 26 163 -36 222 -42 39 -97 54 -175 47
-61 -6 -62 -6 -82 26 -39 64 -111 98 -190 91 -57 -5 -137 -58 -159 -105 l-17
-37 -70 1 c-107 1 -172 -39 -214 -133 -34 -75 -23 -155 31 -224 l31 -38 -26
-52 c-36 -72 -41 -113 -23 -185 17 -65 42 -96 104 -126 37 -18 111 -24 157
-13 28 7 31 5 48 -32 11 -22 34 -52 54 -67 l34 -26 -70 -66 c-58 -54 -71 -72
-71 -97 0 -25 -7 -34 -41 -53 -23 -13 -95 -75 -160 -139 l-119 -115 0 -344 c0
-250 -3 -342 -11 -337 -6 3 -43 6 -83 5 -39 -1 -79 -2 -88 -2 -10 0 -18 -6
-18 -12 0 -9 27 -13 100 -12 l100 1 0 -102 0 -101 -31 3 c-21 3 -29 0 -26 -9
2 -6 15 -12 28 -12 21 0 24 -5 27 -45 l3 -46 -65 2 c-36 1 -70 5 -76 9 -6 4
-17 2 -25 -5 -9 -7 -15 -8 -20 0 -10 17 -25 12 -25 -9 0 -17 8 -19 93 -19 123
-1 117 0 117 -17 0 -11 -12 -15 -50 -15 -49 0 -66 -12 -34 -24 28 -11 56 -7
49 7 -4 6 0 4 8 -6 11 -14 16 -15 20 -5 3 7 6 -8 6 -33 l1 -46 -34 2 c-18 1
-38 5 -44 9 -8 5 -22 -13 -22 -30 0 -2 23 -4 50 -4 37 0 50 -4 50 -14 0 -18
-59 -23 -177 -16 -77 5 -93 1 -93 -24 0 -1 25 -2 55 -3 32 -1 53 2 50 8 -4 5
-1 9 4 9 6 0 11 -4 11 -10 0 -5 7 -10 15 -10 8 0 15 6 15 13 0 9 2 9 9 -1 4
-8 12 -14 16 -14 4 0 12 6 16 14 6 10 9 8 9 -7 0 -11 4 -15 8 -10 11 16 56 12
60 -5 2 -12 -11 -15 -78 -13 -61 1 -80 -2 -80 -12 0 -14 98 -26 103 -13 3 9
57 -3 57 -13 0 -5 -25 -9 -55 -9 -42 0 -55 -3 -55 -15 0 -12 13 -15 55 -15
l55 0 0 -155 0 -155 133 -130 c72 -71 133 -130 135 -130 1 0 2 112 2 249 0
228 1 249 18 256 16 6 16 7 0 19 -17 12 -18 45 -16 472 1 400 3 431 9 239 8
-258 9 -266 22 -200 5 28 12 183 16 345 5 212 7 50 9 -574 l2 -870 103 -105
c56 -58 110 -107 119 -109 16 -3 65 -54 101 -107 11 -15 25 -24 33 -21 8 3 14
2 14 -3 0 -10 123 -141 133 -141 4 0 7 6 7 14 0 26 45 5 61 -30 9 -18 12 -31
8 -28 -5 3 -9 0 -9 -5 0 -6 5 -11 10 -11 6 0 10 -6 10 -13 0 -13 140 -160 147
-154 1 2 3 470 3 1039 l1 1036 35 21 c20 12 40 18 46 15 6 -4 8 -2 4 4 -3 6 4
18 16 26 20 15 24 14 45 -6 29 -27 29 -36 -2 -44 -14 -3 -25 -9 -25 -13 0 -4
-13 -15 -30 -24 -20 -12 -30 -26 -30 -42 0 -27 -16 -42 -23 -23 -3 8 -6 5 -6
-6 -1 -14 4 -17 20 -13 15 4 19 2 15 -9 -3 -8 -9 -22 -12 -31 -5 -15 -4 -16 5
-3 6 8 11 10 11 4 0 -6 -2 -13 -5 -16 -3 -3 -5 -449 -5 -993 l0 -987 62 -64
c34 -35 65 -64 70 -64 4 0 9 51 10 113 2 103 2 105 5 27 2 -47 6 -92 10 -100
6 -15 9 -25 11 -46 1 -6 11 -21 22 -33 29 -34 101 -22 223 37 l98 47 -1 881
c0 485 3 889 6 898 6 16 140 136 409 365 66 56 148 127 182 157 34 30 64 54
67 54 2 0 5 -275 6 -611 0 -337 3 -616 6 -621 3 -5 14 2 25 16 30 38 98 66
160 66 126 -1 219 -93 219 -216 0 -24 4 -44 9 -44 19 0 101 310 101 384 l0 25
121 3 122 3 -7 -122 -7 -123 96 0 95 0 0 -46 0 -46 35 6 c40 8 46 -5 13 -28
-21 -15 -21 -16 -3 -18 11 0 30 0 43 1 14 1 22 -4 22 -14 0 -9 4 -14 9 -10 9
5 15 -17 24 -90 3 -16 4 12 3 62 -1 67 -4 93 -13 93 -7 0 -13 5 -13 10 0 6 7
10 15 10 11 0 15 17 17 68 2 37 4 -23 5 -133 1 -130 -2 -192 -8 -177 -5 13
-13 20 -19 17 -7 -4 -9 8 -5 37 4 31 3 38 -4 23 -5 -11 -10 -46 -10 -78 -1
-58 -1 -58 -41 -76 -22 -10 -38 -20 -35 -22 2 -3 -10 -6 -27 -7 -39 -3 -44 -7
-51 -32 -5 -19 -2 -20 31 -15 l37 6 -40 -17 c-22 -8 -50 -19 -61 -24 -30 -12
-124 -190 -124 -235 0 -35 -16 -49 -22 -20 -5 24 -41 -6 -87 -73 -21 -31 -84
-100 -138 -152 -96 -92 -240 -214 -255 -216 -5 -1 -12 -2 -16 -3 -5 0 -18 -10
-30 -21 -31 -29 -159 -100 -180 -100 -5 0 -12 -9 -15 -20 -3 -11 -12 -20 -21
-20 -9 0 -16 -4 -16 -9 0 -5 -25 -12 -55 -16 -30 -3 -57 -11 -61 -16 -3 -5
-20 -15 -37 -23 l-32 -12 0 -92 c0 -51 3 -92 7 -92 5 0 8 -18 8 -40 0 -22 -4
-40 -10 -40 -6 0 -10 -41 -10 -102 0 -70 3 -98 10 -88 7 11 10 6 11 -20 1 -32
2 -33 9 -10 l8 25 3 -25 c2 -14 6 90 9 230 l6 255 1 -287 c2 -283 2 -288 25
-319 13 -17 37 -37 54 -44 17 -7 46 -35 67 -66 20 -30 44 -63 52 -74 l16 -20
15 20 c8 11 21 28 29 37 8 10 11 18 7 18 -4 0 7 9 23 20 17 11 26 20 21 20 -5
0 10 15 33 33 23 18 53 49 66 70 14 20 30 37 35 37 6 0 10 9 10 19 0 13 9 21
28 26 18 4 42 23 64 53 44 57 93 107 105 107 13 0 61 53 92 100 14 22 33 40
41 40 8 0 34 22 57 50 39 45 55 73 36 62 -5 -3 -9 7 -9 21 -2 26 -1 26 9 5 10
-23 27 -31 27 -13 0 5 6 7 14 4 8 -3 35 18 67 52 30 32 93 96 142 142 l87 85
1 76 1 76 10 -47 c11 -54 18 -59 35 -23 6 14 7 23 2 19 -14 -8 -10 6 6 22 13
14 15 13 15 -10 0 -36 13 -32 51 16 32 40 33 44 30 120 -2 70 1 86 25 136 15
31 38 65 51 75 13 10 21 22 19 25 -2 4 8 8 22 8 40 2 134 31 142 45 6 8 9 8
12 -1 5 -17 68 -3 68 16 0 8 3 13 8 12 4 -2 19 8 35 21 l27 25 2 305 3 306 5
-300 c3 -165 6 -292 8 -281 2 15 5 16 16 7 9 -7 17 -8 20 -2 3 5 24 12 46 16
22 4 42 11 45 15 3 5 6 662 7 1462 l1 1453 8 -1100 c5 -605 6 -1253 3 -1440
-5 -328 -4 -339 13 -313 12 20 25 27 43 25 20 -2 46 20 133 109 l107 110 0
1169 0 1168 -77 73 c-43 40 -75 73 -71 74 4 0 21 -15 37 -32 23 -25 33 -30 42
-21 9 9 19 7 41 -8 15 -11 25 -25 22 -30 -4 -6 -13 -4 -24 6 -10 9 -20 12 -23
7 -3 -4 8 -17 25 -27 17 -10 28 -13 24 -7 -3 6 2 15 11 21 10 6 12 11 6 11 -9
0 -13 21 -13 71 l0 70 -282 277 c-155 152 -311 307 -346 345 -36 37 -69 67
-74 67 -4 0 -9 -62 -9 -137 -1 -76 -4 -122 -8 -103 l-6 35 -370 0 -370 0 0
-40 0 -40 378 0 c351 0 377 -1 377 -17 0 -17 -27 -18 -377 -20 l-378 -3 -3
-47 -3 -48 380 0 c379 0 381 0 381 -21 0 -18 -6 -20 -57 -19 -32 1 -203 1
-380 1 l-323 -1 0 -45 0 -45 130 0 c624 -2 618 -2 623 18 3 9 5 0 6 -21 l1
-38 -376 1 c-207 1 -378 -1 -381 -4 -12 -11 47 -74 74 -79 15 -3 175 -5 356
-3 l327 2 0 -23 0 -24 -322 5 c-177 3 -325 3 -330 0 -5 -3 13 -25 39 -49 l48
-44 283 -1 c262 0 282 -1 282 -17 0 -19 14 -18 -315 -14 -106 1 -144 0 -173
-7 l-33 -7 40 -39 39 -38 194 1 c251 1 248 1 248 -55 l0 -44 -52 -1 c-29 -1
-71 0 -93 1 -22 1 -51 2 -65 1 -14 0 -42 -1 -64 -1 -21 0 -44 -5 -52 -11 -10
-8 -14 -8 -14 0 0 16 -46 13 -60 -4 -7 -9 -11 -18 -8 -21 3 -2 96 -5 207 -6
l201 -1 0 -36 c0 -36 -1 -37 -35 -36 -23 1 -39 -4 -44 -14 -7 -12 -12 -13 -23
-3 -18 15 -83 20 -83 7 0 -5 -6 -19 -13 -30 -13 -19 -13 -19 -9 2 3 12 -1 28
-9 34 -17 14 -76 6 -106 -15 l-22 -16 22 0 c12 0 22 -4 22 -10 0 -5 -4 -10
-10 -10 -5 0 -10 -4 -10 -10 0 -5 12 -10 26 -10 20 0 24 3 16 13 -15 17 2 42
22 34 14 -5 15 -11 6 -27 -11 -21 -10 -21 119 -18 l131 3 0 -45 0 -45 -165 2
c-130 2 -165 -1 -165 -11 0 -10 34 -12 163 -10 l162 2 5 -72 5 -71 53 -3 c42
-2 52 0 52 12 0 9 4 16 9 16 9 0 6 -48 -4 -77 -3 -9 -32 -13 -97 -13 l-92 0
-193 -197 -193 -198 0 472 0 471 -62 50 c-35 28 -81 69 -103 92 -22 23 -61 60
-87 82 l-48 40 -30 -22 c-25 -18 -30 -19 -30 -6 0 9 -3 16 -6 16 -3 0 -47 -32
-98 -72 -50 -39 -97 -76 -103 -81 -10 -7 -13 -1 -13 27 0 32 8 42 83 106 45
39 92 76 105 80 20 9 22 16 23 102 0 51 4 147 7 212 l7 119 -77 51 c-42 27
-79 59 -82 70 -3 12 -6 87 -6 168 0 107 3 147 12 150 7 3 0 13 -17 23 -33 21
-162 132 -242 209 l-53 50 0 492 c0 439 -2 493 -16 498 -25 10 -33 7 -44 -13z
m30 -1137 c0 -14 -7 -32 -15 -40 -8 -9 -15 -24 -15 -34 0 -19 -65 -78 -156
-142 l-52 -37 -5 37 c-2 20 -2 42 2 49 8 15 223 193 233 193 4 0 8 -12 8 -26z
m-1765 -186 c6 -6 0 -7 -18 -3 -21 6 -26 4 -22 -7 3 -8 0 -15 -7 -15 -50 -3
-78 -8 -78 -16 0 -5 -7 -15 -15 -23 -21 -22 -19 -7 6 32 29 48 100 65 134 32z
m1725 -66 c0 -12 -29 -39 -79 -75 -108 -76 -120 -82 -127 -63 -9 23 0 32 92
88 47 28 87 55 90 60 9 15 24 8 24 -10z m-1463 -44 c-2 -8 -16 -12 -32 -10
-17 2 -42 -7 -67 -23 -23 -15 -38 -21 -36 -13 8 24 70 58 105 58 23 0 33 -4
30 -12z m-521 -24 c18 -15 18 -15 -11 -9 -37 8 -57 25 -29 25 11 0 29 -7 40
-16z m581 -40 c1 -20 0 -22 -4 -6 -2 13 -12 22 -23 22 -10 0 -20 6 -23 14 -4
11 1 12 21 7 21 -6 27 -14 29 -37z m-633 27 c3 -5 -4 -11 -15 -14 -12 -3 -18
-10 -15 -15 3 -6 -12 -13 -33 -17 -42 -7 -56 -18 -64 -50 -3 -14 -5 -10 -6 11
-1 36 33 86 53 78 8 -3 17 -1 21 5 8 13 52 15 59 2z m261 -161 c-16 -4 -39
-11 -50 -14 -13 -5 -12 -2 5 8 14 8 36 15 50 15 23 -1 22 -2 -5 -9z m3311
-152 l29 -33 -32 29 c-31 28 -38 36 -30 36 2 0 16 -15 33 -32z m-2937 -22 c-2
-2 -32 -24 -66 -49 -58 -43 -62 -45 -77 -28 -16 17 -13 20 56 49 68 28 97 38
87 28z m-681 -119 c7 -8 8 -24 3 -43 -7 -27 -8 -27 -13 -6 -4 14 -14 22 -26
22 -26 0 -39 19 -21 31 20 13 45 11 57 -4z m3619 -84 c-3 -10 -5 -4 -5 12 0
17 2 24 5 18 2 -7 2 -21 0 -30z m0 -726 c-1 -128 -2 -20 -2 238 0 259 1 363 2
232 2 -131 2 -343 0 -470z m-3295 639 c43 2 47 0 38 -17 -6 -10 -14 -20 -18
-23 -14 -8 -81 16 -99 36 -16 18 -16 19 7 11 14 -5 46 -8 72 -7z m3365 -1689
c-1 -309 -2 -56 -2 563 0 619 1 872 2 562 2 -309 2 -815 0 -1125z m220 1591
c-3 -8 -6 -5 -6 6 -1 11 2 17 5 13 3 -3 4 -12 1 -19z m-3290 -55 c-3 -10 -5
-2 -5 17 0 19 2 27 5 18 2 -10 2 -26 0 -35z m0 -145 c-2 -18 -4 -4 -4 32 0 36
2 50 4 33 2 -18 2 -48 0 -65z m-329 32 c-7 -10 -14 -17 -17 -15 -4 4 18 35 25
35 2 0 -1 -9 -8 -20z m211 -793 c1 -276 3 -608 6 -737 2 -139 1 -225 -4 -210
-6 16 -10 -56 -11 -195 -1 -121 -5 -260 -9 -310 -5 -49 -8 437 -8 1080 0 994
1 1148 12 1022 7 -86 13 -357 14 -650z m3258 746 c-3 -10 -5 -4 -5 12 0 17 2
24 5 18 2 -7 2 -21 0 -30z m-3487 2 c0 -9 6 -12 18 -8 14 5 13 3 -3 -10 -19
-15 -41 -4 -29 15 3 4 0 8 -5 8 -6 0 -11 -4 -11 -10 0 -5 -5 -10 -11 -10 -8 0
-8 5 1 15 16 19 40 19 40 0z m-24 -38 c11 -10 -18 -38 -33 -33 -8 3 -11 1 -8
-4 3 -5 -9 -22 -26 -37 -18 -15 -41 -38 -52 -50 -23 -25 -49 -19 -45 11 2 17
9 20 31 18 18 -2 29 2 33 12 3 9 13 16 21 16 8 0 11 5 8 11 -5 7 -14 4 -26 -7
-39 -35 -27 -6 13 32 22 21 38 32 34 24 -5 -10 -3 -10 5 1 12 17 32 19 45 6z
m3301 -64 c-2 -16 -4 -5 -4 22 0 28 2 40 4 28 2 -13 2 -35 0 -50z m-3470 42
c0 -9 -5 -14 -12 -12 -6 3 -11 -5 -12 -17 0 -11 1 -15 4 -8 11 29 18 8 15 -47
-2 -36 -9 -65 -18 -72 -12 -10 -14 1 -14 74 0 80 4 93 31 96 3 1 6 -6 6 -14z
m3830 -398 c-1 -73 -3 -10 -3 138 0 149 2 208 3 132 2 -76 2 -198 0 -270z
m-3290 -354 c-1 -137 -2 -25 -2 247 0 272 1 384 2 248 2 -137 2 -359 0 -495z
m-220 610 c-3 -10 -5 -2 -5 17 0 19 2 27 5 18 2 -10 2 -26 0 -35z m0 -195 c-2
-13 -4 -3 -4 22 0 25 2 35 4 23 2 -13 2 -33 0 -45z m-300 -105 c-2 -27 -3 -5
-3 47 0 52 1 74 3 48 2 -27 2 -69 0 -95z m1470 -105 c-2 -29 -3 -6 -3 52 0 58
1 81 3 53 2 -29 2 -77 0 -105z m553 11 c0 -18 -9 -36 -22 -48 -36 -30 -269
-222 -319 -264 -44 -35 -47 -36 -52 -17 -4 17 10 35 61 84 129 122 317 284
325 279 4 -2 7 -17 7 -34z m-2073 -86 c-2 -21 -4 -4 -4 37 0 41 2 58 4 38 2
-21 2 -55 0 -75z m3860 45 c-3 -8 -6 -5 -6 6 -1 11 2 17 5 13 3 -3 4 -12 1
-19z m-3510 -155 c-2 -32 -3 -8 -3 52 0 61 1 87 3 58 2 -29 2 -78 0 -110z
m3220 -45 c-2 -35 -3 -7 -3 62 0 69 1 97 3 63 2 -35 2 -91 0 -125z m290 -30
c-1 -40 -3 -10 -3 67 0 77 1 110 3 73 2 -37 2 -100 0 -140z m-550 -40 l33 -20
0 -926 c0 -509 -3 -922 -6 -919 -4 4 -8 44 -10 89 -2 46 -4 85 -5 88 -6 14 -3
400 4 400 4 0 6 240 5 533 -1 298 -5 468 -8 387 -3 -80 -7 -127 -8 -106 -1 22
-5 36 -9 32 -5 -4 -10 -139 -13 -299 -5 -271 -6 -258 -8 193 l-3 485 -55 38
c-30 21 -52 43 -48 48 13 22 49 27 73 12 13 -9 39 -24 58 -35z m-2272 -49 c11
-12 15 -19 8 -16 -16 10 -22 -101 -5 -115 18 -15 15 -52 -6 -71 -10 -10 -21
-15 -23 -13 -2 3 -4 -44 -5 -102 0 -59 1 -84 3 -55 3 33 9 53 18 57 9 3 15 -1
15 -10 0 -8 -4 -12 -10 -9 -6 4 -10 -17 -10 -55 0 -38 -4 -59 -10 -55 -7 4
-10 -60 -10 -184 0 -184 1 -191 20 -191 11 0 20 -5 20 -11 0 -5 -5 -7 -11 -3
-6 3 -15 0 -20 -7 -4 -8 -8 -272 -9 -588 0 -316 -3 -577 -5 -580 -3 -2 -5 436
-5 973 0 928 -1 978 -17 971 -10 -4 -26 -8 -37 -11 -10 -2 -27 -10 -36 -19
-16 -14 -18 -14 -23 4 -6 24 17 46 47 46 12 0 22 8 26 20 17 64 43 72 85 24z
m2672 -86 c-2 -21 -4 -4 -4 37 0 41 2 58 4 38 2 -21 2 -55 0 -75z m-587 86 c0
-5 5 -7 10 -4 6 3 10 1 10 -4 0 -14 -17 -14 -25 -1 -5 8 -11 7 -21 -1 -10 -8
-15 -40 -16 -113 l-2 -101 -3 99 c-3 82 -1 102 13 117 19 21 34 25 34 8z m737
-51 c-3 -7 -5 -2 -5 12 0 14 2 19 5 13 2 -7 2 -19 0 -25z m-3578 -993 c-3 -60
-5 142 -5 450 l0 560 6 -450 c3 -247 2 -499 -1 -560z m2849 848 c-1 -92 -2
-96 -14 -63 -15 43 -17 80 -4 80 6 0 10 18 10 40 0 22 2 40 5 40 2 0 4 -44 3
-97z m579 -800 c-1 -159 -2 -29 -2 287 0 316 1 446 2 288 2 -159 2 -417 0
-575z m-637 753 c0 -8 -5 -18 -12 -22 -8 -5 -9 -2 -5 10 6 14 3 16 -16 11 -17
-5 -19 -4 -7 4 21 15 40 13 40 -3z m-1870 -42 c0 -2 -13 2 -30 11 -16 9 -30
18 -30 21 0 2 14 -2 30 -11 17 -9 30 -18 30 -21z m1817 20 c16 -15 38 -15 76
1 21 9 24 -20 2 -32 -11 -6 -15 -35 -18 -123 l-3 -115 -2 118 c-2 131 -3 132
-70 98 -20 -10 -49 -21 -64 -25 -26 -6 -28 -4 -28 22 0 23 8 32 43 49 52 27
45 26 64 7z m-1927 -24 c8 -5 11 -10 5 -10 -5 0 -17 5 -25 10 -8 5 -10 10 -5
10 6 0 17 -5 25 -10z m-523 -973 c-1 -177 -2 -32 -2 323 0 355 1 500 2 322 2
-177 2 -467 0 -645z m640 927 c-3 -3 -12 -4 -19 -1 -8 3 -5 6 6 6 11 1 17 -2
13 -5z m-150 -126 c-3 -7 -5 -2 -5 12 0 14 2 19 5 13 2 -7 2 -19 0 -25z m-710
-120 c-2 -18 -4 -6 -4 27 0 33 2 48 4 33 2 -15 2 -42 0 -60z m2678 32 c-3 -5
-12 -10 -18 -10 -7 0 -6 4 3 10 19 12 23 12 15 0z m-1850 -20 c3 -6 -1 -7 -9
-4 -18 7 -21 14 -7 14 6 0 13 -4 16 -10z m1770 -12 c-11 -6 -23 -16 -27 -22
-5 -8 -8 -7 -8 1 0 12 28 32 45 32 6 0 1 -5 -10 -11z m-2348 -65 c-2 -16 -4
-5 -4 22 0 28 2 40 4 28 2 -13 2 -35 0 -50z m520 52 c0 -8 -4 -12 -9 -9 -5 3
-6 10 -3 15 9 13 12 11 12 -6z m1965 -127 l3 -116 -44 -22 c-24 -11 -46 -18
-49 -15 -3 3 13 13 37 22 l42 16 -3 123 c-2 68 0 120 4 116 4 -4 8 -60 10
-124z m-1912 97 c14 -8 21 -14 15 -14 -5 0 -21 6 -35 14 -14 8 -20 14 -15 14
6 0 21 -6 35 -14z m2487 -192 c-2 -38 -3 -7 -3 67 0 74 1 105 3 68 2 -38 2
-98 0 -135z m-530 165 c-3 -8 -6 -5 -6 6 -1 11 2 17 5 13 3 -3 4 -12 1 -19z
m-2780 -380 c-1 -62 -3 -12 -3 112 0 124 2 174 3 113 2 -62 2 -164 0 -225z
m116 175 c-3 -43 -7 -80 -10 -83 -6 -6 -2 130 5 148 9 24 10 11 5 -65z m2667
58 c0 -14 -5 -18 -20 -14 -25 7 -26 20 -2 26 9 3 18 5 20 6 1 0 2 -8 2 -18z
m-2098 -83 c-4 -19 -3 -21 9 -11 11 9 14 7 16 -14 1 -17 -2 -21 -7 -13 -4 7
-15 10 -24 7 -19 -7 -19 -6 -6 27 12 32 20 34 12 4z m88 12 c0 -5 -8 -10 -17
-10 -15 0 -16 2 -3 10 19 12 20 12 20 0z m32 -18 c-18 -6 -14 -22 6 -23 13 0
12 -2 -5 -9 -16 -6 -33 -4 -55 6 -31 14 -32 15 -5 9 23 -5 30 -2 34 14 3 13
10 18 21 13 10 -4 12 -7 4 -10z m1820 11 c-6 -2 -9 -10 -5 -15 4 -7 -2 -9 -15
-6 -18 5 -22 2 -23 -20 -1 -15 -1 -30 0 -34 0 -5 -3 -8 -9 -8 -5 0 -10 15 -10
34 0 28 5 36 28 44 27 10 58 15 34 5z m595 -380 c-1 -71 -3 -13 -3 127 0 140
2 198 3 128 2 -71 2 -185 0 -255z m-487 340 c0 -22 2 -25 10 -13 7 11 10 4 10
-25 0 -29 -3 -36 -10 -25 -6 10 -10 -15 -12 -79 -2 -67 -7 -95 -16 -97 -7 -1
-8 0 -2 3 6 3 10 54 10 130 0 99 -3 123 -12 116 -18 -14 -59 -23 -52 -12 3 5
12 9 20 9 8 0 14 5 14 10 0 6 9 10 20 10 15 0 20 -7 20 -27z m47 -85 c-3 -8
-6 -5 -6 6 -1 11 2 17 5 13 3 -3 4 -12 1 -19z m530 -10 c-3 -7 -5 -2 -5 12 0
14 2 19 5 13 2 -7 2 -19 0 -25z m-368 -678 c-3 -47 -5 86 -5 295 l0 380 6
-295 c3 -162 2 -333 -1 -380z m-179 610 c0 -11 -4 -20 -10 -20 -5 0 -10 9 -10
20 0 11 5 20 10 20 6 0 10 -9 10 -20z m-2078 -77 c-3 -16 -7 -22 -10 -15 -4
13 4 42 11 42 2 0 2 -12 -1 -27z m80 -37 c3 -24 0 -32 -9 -29 -7 3 -10 9 -7
14 3 5 0 9 -5 9 -6 0 -11 5 -11 11 0 5 5 7 10 4 6 -3 10 1 10 10 0 10 -5 13
-12 9 -7 -4 -8 -3 -4 5 12 18 23 4 28 -33z m1961 6 c-13 -2 -23 -8 -23 -13 0
-5 -4 -9 -10 -9 -5 0 -10 4 -10 8 0 13 43 31 55 23 6 -3 0 -7 -12 -9z m-1909
-7 c-4 -8 -2 -15 4 -15 6 0 12 6 15 13 3 9 8 9 18 -2 9 -9 9 -11 2 -7 -12 6
-17 -4 -15 -26 1 -3 -6 -9 -16 -13 -9 -3 -13 -3 -10 1 4 4 3 15 -3 26 -5 10
-7 23 -4 28 9 15 15 12 9 -5z m-887 -192 c-2 -21 -4 -4 -4 37 0 41 2 58 4 38
2 -21 2 -55 0 -75z m767 -1 c3 -5 -1 -9 -9 -9 -8 0 -15 4 -15 9 0 4 4 8 9 8 6
0 12 -4 15 -8z m2086 -156 c0 -66 2 -186 5 -266 2 -80 1 -135 -1 -122 -3 12
-10 22 -16 22 -6 0 -8 -9 -5 -20 3 -11 1 -18 -4 -14 -5 3 -9 1 -9 -4 0 -14 26
-33 33 -25 4 3 7 -16 7 -44 0 -47 -1 -50 -23 -46 -23 5 -24 8 -24 96 -1 51 2
110 7 132 l8 40 1 -52 c1 -32 5 -53 12 -53 8 0 10 18 4 63 -4 34 -7 94 -8 132
0 44 -2 54 -4 28 -6 -62 -23 -53 -23 12 0 44 3 53 15 49 8 -4 15 -1 15 5 0 6
-9 11 -20 11 -19 0 -20 -8 -23 -272 l-2 -273 -3 314 c-2 274 -4 312 -17 307
-18 -6 -20 10 -3 20 6 4 14 2 16 -4 2 -7 14 -12 26 -12 19 0 22 6 24 39 2 22
-2 42 -8 46 -16 10 -12 25 5 19 12 -5 15 -29 15 -128z m-2113 62 c-2 -13 -4
-3 -4 22 0 25 2 35 4 23 2 -13 2 -33 0 -45z m156 -12 c33 -14 37 -20 37 -51
l0 -35 -42 17 c-24 9 -54 23 -68 30 l-25 13 23 0 c13 0 20 4 17 10 -3 6 -2 10
4 10 5 0 14 -8 20 -17 5 -10 12 -15 15 -12 3 3 -4 16 -15 28 -20 21 -22 21
-40 5 -20 -18 -18 -20 -33 30 -5 16 19 9 107 -28z m-896 2 c-3 -7 -5 -2 -5 12
0 14 2 19 5 13 2 -7 2 -19 0 -25z m2743 -38 c0 -5 -4 -10 -10 -10 -5 0 -10 5
-10 10 0 6 5 10 10 10 6 0 10 -4 10 -10z m-1973 -37 c-3 -10 -5 -4 -5 12 0 17
2 24 5 18 2 -7 2 -21 0 -30z m2520 -165 c-3 -8 -6 -5 -6 6 -1 11 2 17 5 13 3
-3 4 -12 1 -19z m-2520 -40 c-3 -7 -5 -2 -5 12 0 14 2 19 5 13 2 -7 2 -19 0
-25z m0 -110 c-2 -13 -4 -3 -4 22 0 25 2 35 4 23 2 -13 2 -33 0 -45z m1716
-112 c12 -236 9 -538 -4 -530 -8 5 -11 2 -7 -7 3 -8 2 -23 -3 -34 -5 -13 -8 1
-10 45 -2 60 -2 62 -9 25 -9 -53 -11 469 -1 563 4 46 3 76 -4 83 -5 6 0 6 11
-1 19 -12 22 -25 27 -144z m372 -124 c-3 -3 -11 0 -18 7 -9 10 -8 11 6 5 10
-3 15 -9 12 -12z m-558 -314 c-1 -40 -3 -8 -3 72 0 80 2 112 3 73 2 -40 2
-106 0 -145z m70 180 c-3 -7 -5 -2 -5 12 0 14 2 19 5 13 2 -7 2 -19 0 -25z
m-47 -198 c-6 -64 -7 -55 -7 60 0 101 1 120 7 75 3 -34 4 -94 0 -135z m47 -83
c-2 -23 -3 -1 -3 48 0 50 1 68 3 42 2 -26 2 -67 0 -90z m-230 1 c-2 -13 -4 -5
-4 17 -1 22 1 32 4 23 2 -10 2 -28 0 -40z m-490 -290 c-2 -24 -4 -5 -4 42 0
47 2 66 4 43 2 -24 2 -62 0 -85z m100 -60 c-2 -35 -3 -7 -3 62 0 69 1 97 3 63
2 -35 2 -91 0 -125z m-190 -10 c-2 -29 -3 -6 -3 52 0 58 1 81 3 53 2 -29 2
-77 0 -105z m90 -30 c-3 -8 -6 -5 -6 6 -1 11 2 17 5 13 3 -3 4 -12 1 -19z m0
-190 c-2 -18 -4 -4 -4 32 0 36 2 50 4 33 2 -18 2 -48 0 -65z"/>
<path d="M3052 5840 c0 -19 2 -27 5 -17 2 9 2 25 0 35 -3 9 -5 1 -5 -18z"/>
<path d="M6360 4980 c0 -11 5 -20 10 -20 6 0 10 9 10 20 0 11 -4 20 -10 20 -5
0 -10 -9 -10 -20z"/>
<path d="M6344 4810 c0 -52 1 -74 3 -47 2 26 2 68 0 95 -2 26 -3 4 -3 -48z"/>
<path d="M3945 4999 c-10 -15 3 -25 16 -12 7 7 7 13 1 17 -6 3 -14 1 -17 -5z"/>
<path d="M4052 4920 c-2 -24 2 -30 18 -30 25 0 26 22 2 43 -17 15 -18 14 -20
-13z"/>
<path d="M4065 4870 c-16 -7 -17 -9 -3 -9 9 -1 20 4 23 9 7 11 7 11 -20 0z"/>
<path d="M6023 4770 c-2 -24 8 -32 27 -19 13 7 12 9 -2 9 -11 0 -15 5 -12 15
4 8 2 15 -3 15 -5 0 -9 -9 -10 -20z"/>
<path d="M6157 3523 c-4 -6 -6 -17 -4 -25 2 -7 2 -10 0 -5 -8 13 -23 8 -23 -8
0 -19 29 -20 36 -1 8 21 0 54 -9 39z"/>
<path d="M6164 3059 c-3 -6 -1 -16 5 -22 8 -8 11 -5 11 11 0 24 -5 28 -16 11z"/>
<path d="M4130 3580 c0 -5 5 -10 11 -10 5 0 7 5 4 10 -3 6 -8 10 -11 10 -2 0
-4 -4 -4 -10z"/>
<path d="M5793 3145 c0 -22 2 -30 4 -17 2 12 2 30 0 40 -3 9 -5 -1 -4 -23z"/>
<path d="M1787 8142 c-19 -4 -19 -4 15 -134 45 -175 153 -258 334 -258 40 0
75 4 78 9 6 10 -44 183 -63 219 -35 66 -106 121 -188 146 -31 10 -154 22 -176
18z"/>
<path d="M4950 7460 c-167 -21 -304 -55 -279 -70 7 -5 73 -9 147 -9 l134 -2
36 32 c21 18 41 38 45 46 9 14 7 14 -83 3z"/>
<path d="M5245 7420 l40 -41 138 2 c76 1 140 6 143 10 2 4 -8 15 -23 22 -33
17 -107 29 -263 42 l-75 6 40 -41z"/>
<path d="M4515 7326 l-70 -34 197 -1 196 -1 32 26 c17 15 27 30 22 33 -6 3
-77 7 -159 8 l-148 3 -70 -34z"/>
<path d="M5479 7356 c-2 -2 -33 -6 -69 -9 -36 -3 -67 -6 -70 -7 -3 0 9 -11 25
-25 30 -24 32 -24 233 -25 111 0 202 3 202 8 0 4 -33 19 -74 35 -59 22 -90 27
-158 27 -46 0 -87 -2 -89 -4z"/>
<path d="M4381 7252 c-14 -2 -50 -20 -80 -40 l-56 -37 233 -3 233 -2 45 37
c25 21 39 39 32 40 -25 4 -383 8 -407 5z"/>
<path d="M5661 7250 l-214 -5 42 -37 41 -38 237 0 c229 0 236 1 219 19 -9 10
-38 29 -64 42 -46 24 -50 24 -261 19z"/>
<path d="M4165 7101 c-23 -20 -51 -41 -61 -48 -15 -9 49 -12 299 -12 l318 -1
-3 48 -3 47 -254 1 -254 0 -42 -35z"/>
<path d="M5520 7090 l0 -50 322 0 321 0 -19 21 c-10 12 -38 34 -61 50 l-42 29
-260 0 -261 0 0 -50z"/>
<path d="M4003 6968 c-27 -28 -33 -39 -22 -43 8 -3 176 -4 374 -3 l360 3 3 37
3 37 -341 3 -341 3 -36 -37z"/>
<path d="M5522 6965 l3 -40 373 -2 c204 -2 372 1 372 5 0 4 -15 21 -33 39
l-33 32 -342 3 -343 3 3 -40z"/>
<path d="M3898 6847 l-41 -48 416 3 c448 3 435 2 452 56 l6 22 -313 1 c-172 0
-351 4 -396 8 l-84 6 -40 -48z"/>
<path d="M5753 6882 c-222 -2 -233 -3 -233 -22 0 -10 13 -28 29 -39 28 -20 41
-21 425 -21 218 0 396 3 396 6 0 3 -14 23 -32 45 l-32 40 -161 -3 c-88 -2
-265 -4 -392 -6z"/>
<path d="M3820 6746 c-6 -6 -10 -23 -10 -38 l0 -28 375 0 375 0 0 38 0 37
-365 0 c-218 0 -370 -4 -375 -9z"/>
<path d="M2417 6402 l-337 -337 -1 -105 c0 -62 -4 -97 -8 -85 -5 11 -6 -16 -3
-60 2 -44 6 -82 8 -84 4 -5 21 14 81 89 122 155 363 357 548 459 137 77 131
68 102 121 -32 58 -35 151 -8 229 19 54 19 55 -2 83 -11 15 -26 28 -31 28 -6
0 -163 -152 -349 -338z"/>
<path d="M4928 6729 c-17 -9 -18 -49 -18 -614 0 -333 4 -605 8 -605 5 0 18 9
30 20 l22 21 0 594 c0 625 1 610 -42 584z"/>
<path d="M3810 6590 l0 -50 375 0 375 0 0 50 0 50 -375 0 -375 0 0 -50z"/>
<path d="M4787 6633 c-4 -3 -7 -102 -7 -218 0 -189 2 -213 18 -227 43 -37 42
-41 42 211 l0 241 -23 0 c-13 0 -27 -3 -30 -7z"/>
<path d="M3963 6502 l-153 -3 0 -44 0 -45 375 0 375 0 0 45 0 45 -132 1 c-73
1 -173 2 -223 3 -49 0 -159 0 -242 -2z"/>
<path d="M3810 6328 l0 -43 346 1 345 2 30 28 c57 55 62 54 -346 54 l-375 0 0
-42z"/>
<path d="M2804 6251 c-178 -86 -321 -188 -470 -336 -221 -220 -347 -417 -452
-710 -88 -246 -106 -354 -106 -640 0 -220 14 -335 56 -475 10 -36 26 -90 35
-120 9 -30 20 -59 25 -64 4 -6 8 -16 8 -24 0 -23 126 -275 181 -364 184 -293
440 -545 749 -738 169 -105 380 -194 620 -260 157 -43 519 -68 740 -50 179 14
186 15 235 28 22 6 56 14 75 16 141 21 390 106 554 188 164 82 379 238 495
357 143 147 268 328 333 482 31 75 73 237 84 322 l6 57 -74 0 -75 0 -22 -82
c-54 -204 -189 -426 -368 -605 -257 -256 -516 -394 -928 -495 -176 -44 -516
-60 -758 -38 -345 32 -699 181 -1012 425 -166 129 -368 368 -506 598 -93 154
-193 424 -219 592 -16 101 -16 414 -1 523 24 165 128 453 213 590 108 173 242
324 403 457 100 82 278 199 367 240 26 12 53 26 60 32 7 5 33 18 58 28 25 10
46 20 48 21 2 1 -8 14 -22 29 -22 23 -34 27 -95 31 -39 2 -86 10 -105 18 -33
14 -37 12 -132 -33z"/>
<path d="M3810 6199 l0 -49 274 0 c302 0 276 -5 341 68 l29 33 -322 -1 -322
-2 0 -49z"/>
<path d="M4625 6158 c-3 -40 -5 -264 -3 -498 l3 -425 113 104 112 103 0 312 0
313 -40 32 c-71 57 -169 131 -174 131 -2 0 -7 -33 -11 -72z"/>
<path d="M7070 6139 c0 -5 5 -7 10 -4 6 3 10 8 10 11 0 2 -4 4 -10 4 -5 0 -10
-5 -10 -11z"/>
<path d="M7180 6130 c-12 -7 -12 -10 -1 -10 10 0 12 -9 7 -36 -5 -21 -3 -41 4
-49 7 -9 10 -43 8 -92 -3 -66 -6 -78 -21 -77 -9 1 -14 -3 -11 -8 3 -5 12 -7
18 -5 10 4 12 -7 10 -41 -2 -26 -5 -136 -8 -246 -3 -153 -7 -200 -17 -207 -11
-6 -11 -9 -1 -9 9 0 11 -16 8 -62 -3 -37 -9 -62 -16 -61 -6 2 -10 -19 -10 -52
0 -30 4 -55 9 -55 5 0 7 19 5 43 l-3 42 8 -38 c9 -42 4 -87 -10 -87 -5 0 -9
-15 -8 -32 0 -18 3 -27 6 -20 10 25 23 11 23 -27 0 -47 -17 -64 -23 -24 -2 16
-4 6 -5 -22 0 -27 2 -44 5 -37 2 6 8 12 13 12 4 0 8 -6 7 -12 0 -7 2 -209 4
-448 3 -375 4 -405 9 -220 5 208 6 203 8 -122 1 -186 5 -338 10 -338 4 0 64
58 135 128 l127 128 0 48 c0 35 4 47 13 43 6 -3 20 -8 30 -12 24 -10 22 12 -3
25 -11 6 -25 8 -30 5 -6 -3 -10 3 -10 14 0 12 7 21 15 21 8 0 15 7 15 16 0 10
-6 14 -15 10 -13 -4 -15 7 -15 73 l0 77 55 -2 c42 -2 55 1 55 12 0 11 -11 13
-55 8 l-55 -5 0 75 c0 63 2 74 15 70 8 -4 15 -1 15 5 0 6 -7 11 -15 11 -12 0
-15 15 -15 73 l0 73 68 -1 c38 -1 75 -6 82 -10 8 -5 15 -4 17 2 2 5 25 8 53 5
42 -3 49 -2 44 11 -4 12 -22 16 -79 15 -41 0 -79 3 -84 7 -6 3 -11 3 -11 -2 0
-4 -20 -8 -45 -8 -40 0 -45 3 -43 20 2 15 9 19 31 17 15 -1 27 2 27 8 0 5 -13
10 -30 10 -19 0 -30 5 -30 14 0 19 27 22 128 16 73 -4 82 -3 82 12 0 18 -31
21 -46 5 -4 -4 -12 -7 -18 -7 -6 0 -5 4 2 9 8 5 -20 7 -67 6 -74 -3 -81 -1
-81 16 0 10 5 19 10 19 6 0 10 5 10 11 0 5 -4 7 -10 4 -6 -4 -10 6 -10 24 0
22 4 29 14 25 7 -3 16 2 20 12 5 13 2 15 -14 11 -13 -3 -20 0 -20 9 0 15 27
17 283 15 103 0 137 3 137 12 0 10 -49 13 -210 12 l-210 0 0 45 c0 41 2 46 23
45 32 0 37 19 5 23 -26 3 -28 6 -28 52 0 40 3 48 15 44 8 -4 15 -1 15 5 0 6
-7 11 -15 11 -12 0 -15 16 -15 86 l0 86 30 -4 c17 -3 30 -1 30 4 0 4 -13 8
-30 8 l-30 0 0 249 0 249 -126 123 c-69 68 -130 125 -137 126 -7 2 -19 -1 -27
-7z m17 -932 c-3 -7 -5 -2 -5 12 0 14 2 19 5 13 2 -7 2 -19 0 -25z m0 -235
c-3 -10 -5 -4 -5 12 0 17 2 24 5 18 2 -7 2 -21 0 -30z m0 -75 c-3 -8 -6 -5 -6
6 -1 11 2 17 5 13 3 -3 4 -12 1 -19z m0 -115 c-3 -10 -5 -2 -5 17 0 19 2 27 5
18 2 -10 2 -26 0 -35z"/>
<path d="M3810 6069 l0 -49 210 0 211 0 44 43 c25 23 45 45 45 49 0 4 -115 7
-255 7 l-255 -1 0 -49z"/>
<path d="M7150 6061 c0 -6 5 -13 10 -16 6 -3 10 1 10 9 0 9 -4 16 -10 16 -5 0
-10 -4 -10 -9z"/>
<path d="M7158 6018 c-2 -7 -1 -26 3 -43 l7 -30 2 35 3 35 7 -35 7 -35 2 31
c1 33 -23 66 -31 42z"/>
<path d="M6326 5992 c-2 -4 -72 -7 -155 -6 -122 1 -151 -1 -151 -12 0 -16 9
-17 148 -15 66 1 101 -3 97 -9 -3 -6 -2 -10 4 -10 5 0 12 4 15 9 3 5 35 7 71
5 60 -4 65 -3 65 15 0 17 -5 20 -29 15 -16 -4 -32 -1 -35 5 -8 13 -23 14 -30
3z"/>
<path d="M3820 5982 c-6 -2 -10 -25 -10 -50 l0 -47 195 -2 195 -2 0 28 c0 29
-11 34 -38 17 -10 -6 -13 -3 -10 10 3 13 11 18 26 17 15 -2 22 3 22 15 0 16
-16 17 -185 17 -102 0 -190 -1 -195 -3z m183 -33 c4 -16 3 -18 -9 -8 -16 13
-19 29 -5 29 5 0 11 -9 14 -21z m104 -1 c7 17 22 15 19 -3 -1 -9 -5 -15 -9
-15 -4 0 -13 0 -19 0 -23 0 -41 17 -33 30 6 10 12 8 23 -6 10 -13 16 -15 19
-6z m-238 -6 c-8 -9 -14 -18 -15 -20 -1 -1 -9 0 -18 4 -27 10 -18 31 15 32 27
1 29 -1 18 -16z m41 -2 c0 -11 -4 -20 -10 -20 -5 0 -10 9 -10 20 0 11 5 20 10
20 6 0 10 -9 10 -20z m65 0 c10 -11 16 -20 13 -20 -8 0 -68 31 -68 36 0 12 39
1 55 -16z m67 5 c0 -5 -5 -11 -11 -13 -6 -2 -11 4 -11 13 0 9 5 15 11 13 6 -2
11 -8 11 -13z"/>
<path d="M4033 5813 c-7 -2 -13 -13 -13 -24 0 -10 -5 -19 -11 -19 -6 0 -8 9
-4 20 6 18 2 20 -34 18 -37 -1 -40 -3 -35 -25 5 -18 3 -22 -9 -17 -8 3 -17 13
-20 23 -3 13 -16 18 -51 19 l-46 2 0 -36 0 -35 93 2 c50 1 97 1 102 -1 6 -1
24 -2 42 -1 35 1 45 21 28 58 -10 23 -19 26 -42 16z m27 -33 c0 -5 -7 -10 -16
-10 -8 0 -12 5 -9 10 3 6 10 10 16 10 5 0 9 -4 9 -10z"/>
<path d="M4107 5813 c-12 -12 -8 -73 6 -74 6 0 26 -2 42 -3 30 -3 55 9 55 25
0 12 -64 8 -73 -5 -5 -6 -6 6 -3 27 4 35 -8 50 -27 30z"/>
<path d="M4155 5809 c-9 -13 12 -29 38 -29 26 0 17 34 -10 38 -11 2 -24 -2
-28 -9z"/>
<path d="M6030 5805 c-12 -14 -11 -18 0 -25 8 -5 19 -6 25 -3 5 4 2 -3 -7 -14
-26 -29 -22 -40 12 -35 32 5 49 20 33 31 -5 3 -9 17 -8 31 0 30 -35 40 -55 15z"/>
<path d="M2630 5776 c0 -2 7 -7 16 -10 8 -3 12 -2 9 4 -6 10 -25 14 -25 6z"/>
<path d="M1559 5583 c-79 -81 -165 -168 -191 -193 -90 -88 -338 -353 -338
-361 0 -10 669 -689 679 -689 10 0 7 474 -3 481 -5 4 -5 13 0 20 24 39 14 64
-53 131 l-66 67 71 76 72 75 0 270 c0 218 -3 270 -13 270 -8 0 -78 -66 -158
-147z"/>
<path d="M2640 5710 c0 -5 5 -10 11 -10 5 0 7 5 4 10 -3 6 -8 10 -11 10 -2 0
-4 -4 -4 -10z"/>
<path d="M4150 5699 c0 -5 5 -7 10 -4 6 3 10 8 10 11 0 2 -4 4 -10 4 -5 0 -10
-5 -10 -11z"/>
<path d="M2740 5660 c-13 -8 -12 -10 3 -10 9 0 17 5 17 10 0 12 -1 12 -20 0z"/>
<path d="M3817 5651 c4 -18 14 -19 126 -18 99 2 122 5 125 17 2 13 -14 15
-104 13 -59 -1 -113 -4 -121 -7 -7 -3 -13 -1 -13 4 0 6 -4 10 -9 10 -5 0 -7
-9 -4 -19z"/>
<path d="M4142 5663 c-84 -5 -79 -27 6 -30 56 -3 62 -1 62 17 0 11 -1 19 -2
18 -2 -1 -31 -3 -66 -5z"/>
<path d="M2638 5653 c7 -3 16 -2 19 1 4 3 -2 6 -13 5 -11 0 -14 -3 -6 -6z"/>
<path d="M2688 5653 c7 -3 16 -2 19 1 4 3 -2 6 -13 5 -11 0 -14 -3 -6 -6z"/>
<path d="M6025 5650 c-8 -12 17 -23 41 -18 10 1 19 9 22 16 5 15 -54 17 -63 2z"/>
<path d="M2500 5599 c0 -5 5 -7 10 -4 6 3 10 8 10 11 0 2 -4 4 -10 4 -5 0 -10
-5 -10 -11z"/>
<path d="M2555 5600 c-3 -5 -1 -10 4 -10 6 0 11 5 11 10 0 6 -2 10 -4 10 -3 0
-8 -4 -11 -10z"/>
<path d="M2590 5600 c0 -5 5 -10 10 -10 6 0 10 5 10 10 0 6 -4 10 -10 10 -5 0
-10 -4 -10 -10z"/>
<path d="M2640 5600 c0 -5 5 -10 10 -10 6 0 10 5 10 10 0 6 -4 10 -10 10 -5 0
-10 -4 -10 -10z"/>
<path d="M2680 5600 c0 -5 5 -10 10 -10 6 0 10 5 10 10 0 6 -4 10 -10 10 -5 0
-10 -4 -10 -10z"/>
<path d="M2730 5600 c0 -5 7 -10 15 -10 8 0 15 5 15 10 0 6 -7 10 -15 10 -8 0
-15 -4 -15 -10z"/>
<path d="M3863 5602 c-41 -2 -53 -7 -53 -19 0 -9 3 -13 7 -10 3 4 12 2 20 -4
8 -7 18 -8 26 -2 6 5 87 8 180 7 135 -1 167 1 167 12 0 8 -3 14 -7 15 -22 3
-295 4 -340 1z"/>
<path d="M6111 5600 c-82 -4 -101 -8 -90 -17 10 -8 64 -12 164 -12 83 0 158 0
168 0 45 -1 67 4 67 16 0 9 -15 13 -47 13 -27 1 -73 2 -103 3 -30 1 -102 0
-159 -3z"/>
<path d="M2480 5550 c0 -5 5 -10 10 -10 6 0 10 5 10 10 0 6 -4 10 -10 10 -5 0
-10 -4 -10 -10z"/>
<path d="M2520 5550 c0 -5 5 -10 10 -10 6 0 10 5 10 10 0 6 -4 10 -10 10 -5 0
-10 -4 -10 -10z"/>
<path d="M2645 5550 c-3 -5 -1 -10 4 -10 6 0 11 5 11 10 0 6 -2 10 -4 10 -3 0
-8 -4 -11 -10z"/>
<path d="M2690 5550 c0 -5 5 -10 11 -10 5 0 7 5 4 10 -3 6 -8 10 -11 10 -2 0
-4 -4 -4 -10z"/>
<path d="M2730 5550 c0 -5 7 -10 15 -10 8 0 15 5 15 10 0 6 -7 10 -15 10 -8 0
-15 -4 -15 -10z"/>
<path d="M2558 5543 c7 -3 16 -2 19 1 4 3 -2 6 -13 5 -11 0 -14 -3 -6 -6z"/>
<path d="M3884 5518 c-15 -23 42 -37 58 -14 4 6 12 5 21 -2 19 -16 239 -11
245 6 4 13 -23 15 -211 17 -60 0 -111 -3 -113 -7z"/>
<path d="M6024 5521 c-17 -18 17 -21 161 -19 104 2 164 7 163 13 -3 10 -314
15 -324 6z"/>
<path d="M7491 5494 c0 -11 3 -14 6 -6 3 7 2 16 -1 19 -3 4 -6 -2 -5 -13z"/>
<path d="M7514 5501 c13 -21 86 -21 86 0 0 11 -23 7 -32 -6 -5 -7 -8 -6 -8 0
0 6 -11 12 -26 13 -14 1 -23 -2 -20 -7z"/>
<path d="M2558 5493 c7 -3 16 -2 19 1 4 3 -2 6 -13 5 -11 0 -14 -3 -6 -6z"/>
<path d="M2608 5493 c7 -3 16 -2 19 1 4 3 -2 6 -13 5 -11 0 -14 -3 -6 -6z"/>
<path d="M2648 5493 c7 -3 16 -2 19 1 4 3 -2 6 -13 5 -11 0 -14 -3 -6 -6z"/>
<path d="M2738 5493 c7 -3 16 -2 19 1 4 3 -2 6 -13 5 -11 0 -14 -3 -6 -6z"/>
<path d="M3956 5462 c-13 -12 -5 -20 27 -26 17 -3 39 -6 47 -5 8 0 47 2 85 3
96 4 95 4 95 21 0 13 -18 16 -124 14 -69 0 -127 -4 -130 -7z"/>
<path d="M6025 5460 c-11 -18 0 -22 56 -23 32 0 55 5 57 11 2 8 -9 12 -30 12
-18 0 -43 3 -54 6 -12 3 -25 1 -29 -6z"/>
<path d="M6155 5462 c-26 -26 107 -33 141 -7 17 14 12 15 -58 14 -43 -1 -80
-4 -83 -7z"/>
<path d="M7161 5444 c0 -11 3 -14 6 -6 3 7 2 16 -1 19 -3 4 -6 -2 -5 -13z"/>
<path d="M2410 5440 c0 -5 4 -10 9 -10 6 0 13 5 16 10 3 6 -1 10 -9 10 -9 0
-16 -4 -16 -10z"/>
<path d="M2450 5439 c0 -5 10 -9 22 -9 12 0 18 3 14 7 -10 11 -36 12 -36 2z"/>
<path d="M2500 5440 c0 -5 9 -10 20 -10 11 0 20 5 20 10 0 6 -9 10 -20 10 -11
0 -20 -4 -20 -10z"/>
<path d="M2600 5440 c0 -5 7 -10 15 -10 8 0 15 5 15 10 0 6 -7 10 -15 10 -8 0
-15 -4 -15 -10z"/>
<path d="M2645 5440 c3 -5 10 -10 16 -10 5 0 9 5 9 10 0 6 -7 10 -16 10 -8 0
-12 -4 -9 -10z"/>
<path d="M2680 5440 c0 -5 7 -10 15 -10 8 0 15 5 15 10 0 6 -7 10 -15 10 -8 0
-15 -4 -15 -10z"/>
<path d="M2730 5440 c0 -5 7 -10 15 -10 8 0 15 5 15 10 0 6 -7 10 -15 10 -8 0
-15 -4 -15 -10z"/>
<path d="M7505 5440 c-3 -5 1 -10 9 -10 9 0 16 5 16 10 0 6 -4 10 -9 10 -6 0
-13 -4 -16 -10z"/>
<path d="M7566 5442 c-2 -4 4 -8 14 -8 10 0 16 4 14 8 -3 4 -9 8 -14 8 -5 0
-11 -4 -14 -8z"/>
<path d="M6228 5423 c6 -2 18 -2 25 0 6 3 1 5 -13 5 -14 0 -19 -2 -12 -5z"/>
<path d="M2310 5386 c0 -9 5 -16 10 -16 6 0 10 4 10 9 0 6 -4 13 -10 16 -5 3
-10 -1 -10 -9z"/>
<path d="M2350 5384 c0 -8 5 -12 10 -9 6 4 8 11 5 16 -9 14 -15 11 -15 -7z"/>
<path d="M2556 5391 c-4 -5 -2 -12 3 -15 5 -4 12 -2 15 3 4 5 2 12 -3 15 -5 4
-12 2 -15 -3z"/>
<path d="M2602 5387 c-8 -10 -6 -13 9 -13 20 0 25 11 10 20 -5 3 -13 0 -19 -7z"/>
<path d="M4019 5384 c-18 -22 21 -30 106 -24 52 3 81 9 83 18 2 13 6 13 -101
16 -52 1 -81 -2 -88 -10z"/>
<path d="M7547 5393 c-4 -3 -7 -11 -7 -17 0 -6 5 -5 12 2 6 6 9 14 7 17 -3 3
-9 2 -12 -2z"/>
<path d="M2265 5380 c3 -5 8 -10 11 -10 2 0 4 5 4 10 0 6 -5 10 -11 10 -5 0
-7 -4 -4 -10z"/>
<path d="M2385 5380 c3 -5 8 -10 11 -10 2 0 4 5 4 10 0 6 -5 10 -11 10 -5 0
-7 -4 -4 -10z"/>
<path d="M2420 5381 c0 -6 9 -9 20 -8 11 1 20 5 20 9 0 4 -9 8 -20 8 -11 0
-20 -4 -20 -9z"/>
<path d="M2505 5380 c3 -5 10 -10 16 -10 5 0 9 5 9 10 0 6 -7 10 -16 10 -8 0
-12 -4 -9 -10z"/>
<path d="M2640 5380 c0 -5 4 -10 9 -10 6 0 13 5 16 10 3 6 -1 10 -9 10 -9 0
-16 -4 -16 -10z"/>
<path d="M2690 5380 c0 -5 5 -10 10 -10 6 0 10 5 10 10 0 6 -4 10 -10 10 -5 0
-10 -4 -10 -10z"/>
<path d="M2730 5380 c0 -5 7 -10 15 -10 8 0 15 5 15 10 0 6 -7 10 -15 10 -8 0
-15 -4 -15 -10z"/>
<path d="M6027 5384 c-12 -12 4 -24 34 -24 31 0 39 14 13 24 -20 8 -39 8 -47
0z"/>
<path d="M6100 5381 c0 -13 26 -21 66 -21 24 0 34 5 34 15 0 11 -12 15 -50 15
-27 0 -50 -4 -50 -9z"/>
<path d="M7585 5380 c3 -5 8 -10 11 -10 2 0 4 5 4 10 0 6 -5 10 -11 10 -5 0
-7 -4 -4 -10z"/>
<path d="M7610 5380 c0 -5 4 -10 9 -10 6 0 13 5 16 10 3 6 -1 10 -9 10 -9 0
-16 -4 -16 -10z"/>
<path d="M7848 5383 c7 -3 16 -2 19 1 4 3 -2 6 -13 5 -11 0 -14 -3 -6 -6z"/>
<path d="M7880 5379 c0 -5 5 -7 10 -4 6 3 10 8 10 11 0 2 -4 4 -10 4 -5 0 -10
-5 -10 -11z"/>
<path d="M7920 5380 c0 -5 5 -10 10 -10 6 0 10 5 10 10 0 6 -4 10 -10 10 -5 0
-10 -4 -10 -10z"/>
<path d="M4601 5334 c0 -11 3 -14 6 -6 3 7 2 16 -1 19 -3 4 -6 -2 -5 -13z"/>
<path d="M7480 5329 c0 -19 41 -31 62 -18 10 7 10 11 0 21 -7 7 -12 8 -12 2 0
-14 -33 -14 -42 0 -5 7 -8 5 -8 -5z"/>
<path d="M7567 5326 c-4 -10 -1 -13 9 -9 7 3 14 9 14 14 0 14 -17 10 -23 -5z"/>
<path d="M2260 5320 c0 -5 4 -10 9 -10 6 0 13 5 16 10 3 6 -1 10 -9 10 -9 0
-16 -4 -16 -10z"/>
<path d="M2300 5320 c0 -5 4 -10 9 -10 6 0 13 5 16 10 3 6 -1 10 -9 10 -9 0
-16 -4 -16 -10z"/>
<path d="M2350 5320 c0 -5 5 -10 10 -10 6 0 10 5 10 10 0 6 -4 10 -10 10 -5 0
-10 -4 -10 -10z"/>
<path d="M2380 5320 c0 -5 4 -10 9 -10 6 0 13 5 16 10 3 6 -1 10 -9 10 -9 0
-16 -4 -16 -10z"/>
<path d="M2440 5320 c0 -5 5 -10 10 -10 6 0 10 5 10 10 0 6 -4 10 -10 10 -5 0
-10 -4 -10 -10z"/>
<path d="M2470 5320 c0 -5 5 -10 10 -10 6 0 10 5 10 10 0 6 -4 10 -10 10 -5 0
-10 -4 -10 -10z"/>
<path d="M2500 5320 c0 -5 7 -10 15 -10 8 0 15 5 15 10 0 6 -7 10 -15 10 -8 0
-15 -4 -15 -10z"/>
<path d="M2540 5320 c0 -5 9 -10 20 -10 11 0 20 5 20 10 0 6 -9 10 -20 10 -11
0 -20 -4 -20 -10z"/>
<path d="M2590 5320 c0 -5 9 -10 19 -10 11 0 23 5 26 10 4 6 -5 10 -19 10 -14
0 -26 -4 -26 -10z"/>
<path d="M2650 5320 c0 -5 5 -10 10 -10 6 0 10 5 10 10 0 6 -4 10 -10 10 -5 0
-10 -4 -10 -10z"/>
<path d="M2690 5320 c0 -5 5 -10 10 -10 6 0 10 5 10 10 0 6 -4 10 -10 10 -5 0
-10 -4 -10 -10z"/>
<path d="M2730 5320 c0 -5 4 -10 9 -10 6 0 13 5 16 10 3 6 -1 10 -9 10 -9 0
-16 -4 -16 -10z"/>
<path d="M7958 5323 c7 -3 16 -2 19 1 4 3 -2 6 -13 5 -11 0 -14 -3 -6 -6z"/>
<path d="M4110 5306 c0 -9 14 -15 39 -18 48 -4 61 -1 61 18 0 10 -14 14 -50
14 -36 0 -50 -4 -50 -14z"/>
<path d="M6037 5312 c-9 -2 -15 -8 -12 -13 8 -12 42 -12 49 0 7 11 -13 19 -37
13z"/>
<path d="M6097 5313 c-14 -13 -6 -23 18 -23 16 0 25 6 25 15 0 15 -31 21 -43
8z"/>
<path d="M7150 5283 c0 -24 2 -43 4 -43 8 0 12 60 4 72 -4 8 -8 -4 -8 -29z"/>
<path d="M4597 5283 c-4 -3 -7 -15 -7 -26 0 -25 13 -14 15 13 2 22 1 23 -8 13z"/>
<path d="M7537 5273 c-4 -3 -7 -11 -7 -17 0 -6 5 -5 12 2 6 6 9 14 7 17 -3 3
-9 2 -12 -2z"/>
<path d="M2260 5260 c0 -5 7 -10 15 -10 8 0 15 5 15 10 0 6 -7 10 -15 10 -8 0
-15 -4 -15 -10z"/>
<path d="M2300 5260 c0 -5 7 -10 15 -10 8 0 15 5 15 10 0 6 -7 10 -15 10 -8 0
-15 -4 -15 -10z"/>
<path d="M2340 5260 c0 -5 5 -10 10 -10 6 0 10 5 10 10 0 6 -4 10 -10 10 -5 0
-10 -4 -10 -10z"/>
<path d="M2380 5260 c0 -10 26 -20 34 -13 11 12 6 19 -14 20 -11 1 -20 -2 -20
-7z"/>
<path d="M2440 5260 c0 -5 11 -9 24 -8 14 1 22 6 20 10 -7 12 -44 10 -44 -2z"/>
<path d="M2500 5260 c0 -5 7 -10 15 -10 8 0 15 5 15 10 0 6 -7 10 -15 10 -8 0
-15 -4 -15 -10z"/>
<path d="M2542 5259 c2 -6 7 -10 11 -10 4 1 23 1 43 1 19 0 33 4 30 9 -8 12
-88 12 -84 0z"/>
<path d="M2640 5260 c0 -5 7 -10 15 -10 8 0 15 5 15 10 0 6 -7 10 -15 10 -8 0
-15 -4 -15 -10z"/>
<path d="M2690 5260 c0 -5 5 -10 10 -10 6 0 10 5 10 10 0 6 -4 10 -10 10 -5 0
-10 -4 -10 -10z"/>
<path d="M2735 5260 c3 -5 1 -10 -6 -10 -7 0 -10 -2 -7 -5 7 -8 38 5 38 16 0
5 -7 9 -16 9 -8 0 -12 -4 -9 -10z"/>
<path d="M7560 5260 c0 -5 7 -10 15 -10 8 0 18 0 22 -1 4 0 9 4 11 10 2 6 -8
11 -22 11 -14 0 -26 -4 -26 -10z"/>
<path d="M7620 5260 c0 -5 18 -10 40 -10 22 0 40 5 40 10 0 6 -18 10 -40 10
-22 0 -40 -4 -40 -10z"/>
<path d="M7730 5260 c0 -5 11 -10 25 -10 14 0 25 5 25 10 0 6 -11 10 -25 10
-14 0 -25 -4 -25 -10z"/>
<path d="M7800 5260 c0 -5 5 -10 10 -10 6 0 10 5 10 10 0 6 -4 10 -10 10 -5 0
-10 -4 -10 -10z"/>
<path d="M7842 5258 c6 -18 28 -21 28 -4 0 9 -7 16 -16 16 -9 0 -14 -5 -12
-12z"/>
<path d="M7886 5261 c-7 -11 14 -20 32 -14 6 3 12 9 12 14 0 12 -37 12 -44 0z"/>
<path d="M4150 5227 c0 -7 14 -18 30 -24 28 -11 30 -10 30 13 0 20 -5 24 -30
24 -18 0 -30 -5 -30 -13z"/>
<path d="M6020 5230 c0 -5 14 -10 30 -10 17 0 30 5 30 10 0 6 -13 10 -30 10
-16 0 -30 -4 -30 -10z"/>
<path d="M2230 5206 c0 -9 5 -16 10 -16 6 0 10 4 10 9 0 6 -4 13 -10 16 -5 3
-10 -1 -10 -9z"/>
<path d="M2360 5206 c0 -12 11 -16 50 -16 28 0 50 5 50 10 0 6 -17 10 -38 9
-21 -2 -43 1 -50 5 -7 4 -12 1 -12 -8z"/>
<path d="M7526 5213 c-12 -12 -6 -33 9 -33 8 0 15 6 15 14 0 17 -14 28 -24 19z"/>
<path d="M8182 5020 c-2 -110 0 -200 3 -200 8 0 188 188 194 202 3 9 -177 198
-189 198 -3 0 -6 -90 -8 -200z"/>
<path d="M2260 5200 c0 -5 7 -10 15 -10 8 0 15 5 15 10 0 6 -7 10 -15 10 -8 0
-15 -4 -15 -10z"/>
<path d="M2300 5200 c0 -5 9 -10 20 -10 11 0 20 5 20 10 0 6 -9 10 -20 10 -11
0 -20 -4 -20 -10z"/>
<path d="M2470 5201 c0 -5 11 -11 25 -13 28 -6 34 6 9 16 -22 8 -34 7 -34 -3z"/>
<path d="M2530 5200 c0 -5 7 -10 15 -10 8 0 15 5 15 10 0 6 -7 10 -15 10 -8 0
-15 -4 -15 -10z"/>
<path d="M2575 5200 c-3 -5 1 -10 9 -10 9 0 16 5 16 10 0 6 -4 10 -9 10 -6 0
-13 -4 -16 -10z"/>
<path d="M2610 5200 c0 -5 7 -10 16 -10 8 0 12 5 9 10 -3 6 -10 10 -16 10 -5
0 -9 -4 -9 -10z"/>
<path d="M2650 5200 c0 -5 14 -10 30 -10 17 0 30 5 30 10 0 6 -13 10 -30 10
-16 0 -30 -4 -30 -10z"/>
<path d="M2725 5200 c-3 -5 3 -10 14 -10 12 0 21 5 21 10 0 6 -6 10 -14 10 -8
0 -18 -4 -21 -10z"/>
<path d="M7570 5197 c0 -9 16 -13 55 -13 30 1 55 4 55 8 0 4 7 5 15 2 8 -4 15
-1 15 5 0 7 -18 10 -45 9 -25 0 -45 -6 -45 -12 0 -6 -5 -5 -12 2 -16 16 -38
15 -38 -1z"/>
<path d="M7722 5199 c2 -6 8 -10 13 -10 5 0 11 4 13 10 2 6 -4 11 -13 11 -9 0
-15 -5 -13 -11z"/>
<path d="M7760 5197 c0 -7 9 -13 20 -14 11 -1 20 4 20 13 0 8 -9 14 -20 14
-11 0 -20 -6 -20 -13z"/>
<path d="M7820 5201 c0 -5 7 -11 15 -15 9 -3 15 0 15 9 0 8 -7 15 -15 15 -8 0
-15 -4 -15 -9z"/>
<path d="M7872 5201 c2 -7 7 -12 11 -12 12 1 9 15 -3 20 -7 2 -11 -2 -8 -8z"/>
<path d="M7912 5198 c5 -13 57 -18 64 -6 3 4 12 5 22 2 13 -5 14 -4 3 4 -19
14 -93 14 -89 0z"/>
<path d="M5644 5155 c-4 -8 -9 -13 -13 -11 -4 3 -7 -31 -8 -74 -1 -67 2 -81
19 -96 19 -18 20 -18 16 66 -3 68 -7 84 -18 82 -13 -2 -13 0 0 10 15 13 25 38
15 38 -3 0 -8 -7 -11 -15z"/>
<path d="M2170 5145 c0 -8 5 -15 10 -15 6 0 10 7 10 15 0 8 -4 15 -10 15 -5 0
-10 -7 -10 -15z"/>
<path d="M2200 5145 c0 -8 5 -15 10 -15 6 0 10 7 10 15 0 8 -4 15 -10 15 -5 0
-10 -7 -10 -15z"/>
<path d="M2240 5143 c0 -7 7 -13 15 -13 8 0 15 6 15 13 0 8 -7 14 -15 14 -8 0
-15 -6 -15 -14z"/>
<path d="M2306 5153 c-11 -11 -6 -23 9 -23 8 0 15 4 15 9 0 13 -16 22 -24 14z"/>
<path d="M2340 5145 c0 -8 6 -15 14 -15 22 0 28 17 10 24 -22 9 -24 8 -24 -9z"/>
<path d="M2390 5144 c0 -9 11 -14 30 -14 17 0 30 5 30 10 0 6 -3 11 -7 11 -38
7 -53 5 -53 -7z"/>
<path d="M2467 5143 c7 -17 93 -15 93 2 0 9 -15 13 -49 12 -33 -1 -47 -6 -44
-14z"/>
<path d="M2570 5145 c0 -6 18 -12 40 -13 30 -2 40 1 40 13 0 11 -10 14 -40 13
-22 -1 -40 -6 -40 -13z"/>
<path d="M2670 5146 c0 -6 20 -12 45 -13 31 -2 45 2 45 11 0 8 -15 13 -45 13
-26 0 -45 -5 -45 -11z"/>
<path d="M3956 5152 c-3 -5 1 -9 9 -9 8 0 12 4 9 9 -3 4 -7 8 -9 8 -2 0 -6 -4
-9 -8z"/>
<path d="M7482 5138 c3 -7 15 -12 28 -12 13 0 25 5 28 12 2 8 -7 12 -28 12
-21 0 -30 -4 -28 -12z"/>
<path d="M7550 5135 c0 -8 5 -15 10 -15 6 0 10 7 10 15 0 8 -4 15 -10 15 -5 0
-10 -7 -10 -15z"/>
<path d="M7582 5138 c6 -18 28 -21 28 -4 0 9 -7 16 -16 16 -9 0 -14 -5 -12
-12z"/>
<path d="M7630 5134 c0 -12 6 -15 23 -10 12 3 26 6 30 6 5 0 5 5 2 10 -10 17
-55 12 -55 -6z"/>
<path d="M7700 5139 c0 -5 5 -7 10 -4 6 3 10 8 10 11 0 2 -4 4 -10 4 -5 0 -10
-5 -10 -11z"/>
<path d="M7730 5137 c0 -8 7 -14 15 -14 8 0 15 6 15 14 0 7 -7 13 -15 13 -8 0
-15 -6 -15 -13z"/>
<path d="M7770 5135 c0 -8 5 -15 10 -15 6 0 10 7 10 15 0 8 -4 15 -10 15 -5 0
-10 -7 -10 -15z"/>
<path d="M7805 5138 c3 -7 16 -13 30 -13 14 0 25 6 25 13 0 7 -13 12 -30 12
-19 0 -28 -4 -25 -12z"/>
<path d="M7895 5140 c-3 -6 -11 -8 -16 -5 -5 4 -9 1 -9 -4 0 -13 54 -9 58 5 4
13 -25 17 -33 4z"/>
<path d="M7950 5133 c0 -17 45 -17 59 1 10 12 6 14 -24 13 -21 -1 -35 -6 -35
-14z"/>
<path d="M2540 5095 c0 -25 2 -26 50 -24 35 2 50 7 50 16 0 8 -4 11 -10 8 -5
-3 -10 -2 -10 4 0 7 -8 7 -25 1 -18 -7 -28 -5 -40 6 -13 14 -15 13 -15 -11z"/>
<path d="M2378 5102 c-16 -2 -28 -9 -28 -17 0 -10 20 -13 85 -13 61 1 85 5 85
14 0 9 -16 12 -55 11 -30 -1 -56 0 -58 3 -1 3 -14 4 -29 2z"/>
<path d="M3880 5089 c-7 -11 -9 -23 -6 -27 3 -3 6 0 6 6 0 6 7 18 16 26 8 9
11 16 5 16 -6 0 -15 -9 -21 -21z"/>
<path d="M4570 5106 c0 -2 7 -7 16 -10 8 -3 12 -2 9 4 -6 10 -25 14 -25 6z"/>
<path d="M2147 5088 c-14 -9 -8 -10 50 -13 24 -1 44 3 46 9 5 13 -76 17 -96 4z"/>
<path d="M2260 5083 c0 -10 10 -13 38 -11 46 4 45 20 -3 24 -25 1 -35 -2 -35
-13z"/>
<path d="M2653 5086 c5 -15 60 -18 69 -3 6 9 8 9 8 0 0 -7 7 -13 15 -13 8 0
15 7 15 15 0 12 -12 15 -55 14 -36 -1 -54 -6 -52 -13z"/>
<path d="M7540 5086 c0 -10 22 -13 95 -14 70 0 95 3 95 12 0 9 -26 13 -95 14
-74 2 -95 -1 -95 -12z"/>
<path d="M7740 5089 c0 -7 25 -19 41 -19 5 0 9 7 9 15 0 10 -9 14 -25 13 -14
-1 -25 -5 -25 -9z"/>
<path d="M7810 5085 c0 -8 9 -15 20 -15 13 0 18 5 14 15 -4 8 -12 15 -20 15
-8 0 -14 -7 -14 -15z"/>
<path d="M7852 5088 c3 -7 15 -15 27 -16 16 -3 22 1 19 10 -3 7 -15 15 -27 16
-16 3 -22 -1 -19 -10z"/>
<path d="M7910 5084 c0 -7 11 -11 25 -10 14 0 25 6 25 12 0 7 -11 11 -25 10
-14 0 -25 -6 -25 -12z"/>
<path d="M7971 5084 c0 -11 3 -14 6 -6 3 7 2 16 -1 19 -3 4 -6 -2 -5 -13z"/>
<path d="M7990 5084 c0 -8 5 -12 10 -9 6 4 8 11 5 16 -9 14 -15 11 -15 -7z"/>
<path d="M2240 5042 c-78 -3 -109 -11 -89 -22 8 -5 32 -5 52 0 20 4 37 5 37 1
0 -3 50 -7 110 -8 62 -1 110 3 110 8 0 5 0 12 0 15 0 6 -137 10 -220 6z"/>
<path d="M2536 5043 c-4 -4 -19 -7 -33 -8 -44 0 -38 -23 7 -23 33 -1 40 3 40
19 0 21 -3 23 -14 12z"/>
<path d="M4926 5028 c-14 -20 -16 -125 -16 -935 0 -789 2 -913 14 -913 8 0 22
10 30 22 14 20 16 125 16 935 0 789 -2 913 -14 913 -8 0 -22 -10 -30 -22z"/>
<path d="M7710 5030 c0 -16 7 -20 30 -20 17 0 30 5 30 13 0 7 3 8 8 2 10 -15
72 -16 72 -1 0 7 -19 12 -50 14 -30 1 -50 -2 -50 -9 0 -6 -7 -3 -16 5 -20 21
-24 20 -24 -4z"/>
<path d="M7480 5031 c0 -6 5 -13 10 -16 6 -3 10 0 10 7 0 8 3 9 8 3 4 -6 28
-11 55 -13 36 -2 47 1 47 13 0 12 -14 15 -65 15 -36 0 -65 -4 -65 -9z"/>
<path d="M7630 5025 c0 -10 10 -15 30 -15 20 0 30 5 30 15 0 10 -10 15 -30 15
-20 0 -30 -5 -30 -15z"/>
<path d="M7860 5025 c0 -8 5 -15 10 -15 6 0 10 7 10 15 0 8 -4 15 -10 15 -5 0
-10 -7 -10 -15z"/>
<path d="M7890 5027 c0 -12 14 -15 60 -14 77 1 74 21 -3 25 -44 2 -57 0 -57
-11z"/>
<path d="M2160 4975 c0 -12 22 -14 125 -14 102 0 125 2 125 14 0 12 -19 14
-107 13 -60 -2 -111 -7 -115 -13 -5 -6 -8 -5 -8 3 0 6 -4 12 -10 12 -5 0 -10
-7 -10 -15z"/>
<path d="M2427 4983 c-15 -15 -5 -23 28 -23 22 0 35 5 35 13 0 13 -52 22 -63
10z"/>
<path d="M2500 4973 c0 -7 7 -13 15 -13 8 0 15 6 15 13 0 8 -7 14 -15 14 -8 0
-15 -6 -15 -14z"/>
<path d="M2540 4975 c0 -8 33 -11 110 -11 80 1 110 4 110 13 0 10 -28 12 -110
11 -75 -1 -110 -5 -110 -13z"/>
<path d="M7900 4975 c0 -10 15 -13 55 -12 72 3 72 20 0 23 -40 2 -55 -1 -55
-11z"/>
<path d="M2141 4964 c0 -11 3 -14 6 -6 3 7 2 16 -1 19 -3 4 -6 -2 -5 -13z"/>
<path d="M2170 4923 c0 -8 7 -13 18 -11 9 2 17 7 17 12 0 5 -8 10 -17 12 -10
1 -18 -4 -18 -13z"/>
<path d="M2220 4924 c0 -9 5 -14 12 -12 18 6 21 28 4 28 -9 0 -16 -7 -16 -16z"/>
<path d="M2260 4925 c0 -8 9 -13 20 -12 11 1 20 6 20 12 0 6 -9 11 -20 12 -11
1 -20 -4 -20 -12z"/>
<path d="M2321 4924 c0 -11 3 -14 6 -6 3 7 2 16 -1 19 -3 4 -6 -2 -5 -13z"/>
<path d="M2340 4925 c0 -8 9 -15 20 -15 11 0 20 7 20 15 0 8 -9 15 -20 15 -11
0 -20 -7 -20 -15z"/>
<path d="M2390 4925 c0 -9 9 -15 25 -15 16 0 25 6 25 15 0 9 -9 15 -25 15 -16
0 -25 -6 -25 -15z"/>
<path d="M2461 4923 c0 -13 2 -14 6 -4 4 10 7 11 13 1 4 -7 13 -9 19 -6 19 12
12 26 -14 26 -17 0 -25 -5 -24 -17z"/>
<path d="M2530 4926 c0 -8 10 -13 24 -13 14 0 27 6 30 13 4 10 -3 14 -24 14
-19 0 -30 -5 -30 -14z"/>
<path d="M2600 4926 c0 -15 75 -25 125 -16 37 7 45 30 11 30 -14 0 -26 -6 -26
-12 0 -9 -4 -8 -10 2 -9 13 -11 13 -20 0 -6 -10 -10 -11 -10 -2 0 7 -14 12
-35 12 -23 0 -35 -5 -35 -14z"/>
<path d="M7515 4931 c-12 -12 -3 -22 17 -19 28 4 36 27 8 25 -11 -1 -23 -3
-25 -6z"/>
<path d="M7590 4926 c0 -9 5 -16 10 -16 6 0 10 4 10 9 0 6 -4 13 -10 16 -5 3
-10 -1 -10 -9z"/>
<path d="M7624 4929 c-3 -6 -1 -16 5 -22 8 -8 11 -5 11 11 0 24 -5 28 -16 11z"/>
<path d="M7650 4924 c0 -8 9 -14 20 -14 11 0 20 4 20 9 0 5 -9 11 -20 14 -13
3 -20 0 -20 -9z"/>
<path d="M7730 4925 c0 -9 6 -12 15 -9 8 4 15 10 15 15 0 5 -7 9 -15 9 -8 0
-15 -7 -15 -15z"/>
<path d="M7770 4926 c0 -22 17 -28 24 -10 9 22 8 24 -9 24 -8 0 -15 -6 -15
-14z"/>
<path d="M7819 4923 c-7 -7 -6 -14 2 -19 8 -4 9 -3 5 5 -5 8 1 10 23 6 21 -4
31 -1 31 7 0 16 -48 17 -61 1z"/>
<path d="M7920 4925 c0 -8 2 -15 4 -15 2 0 6 7 10 15 3 8 1 15 -4 15 -6 0 -10
-7 -10 -15z"/>
<path d="M4793 4916 l-23 -11 0 -907 c0 -523 4 -909 9 -912 5 -3 18 2 30 12
20 17 20 20 21 907 1 490 1 898 1 908 -1 19 -6 20 -38 3z"/>
<path d="M7945 4919 c-10 -15 1 -23 20 -15 9 3 13 10 10 16 -8 13 -22 13 -30
-1z"/>
<path d="M3867 4883 c-6 -48 -4 -95 5 -109 4 -6 5 -14 1 -17 -5 -6 -9 -80 -14
-267 0 -19 3 -81 8 -137 5 -67 5 -99 -2 -93 -6 5 -11 -1 -11 -17 -2 -17 2 -23
12 -19 8 3 11 0 7 -10 -3 -7 -1 -14 4 -14 4 0 8 158 8 354 0 328 -6 425 -18
329z"/>
<path d="M2280 4880 c-8 -5 -25 -7 -37 -3 -16 3 -23 1 -23 -10 0 -10 11 -15
40 -15 33 -1 40 3 40 19 0 22 0 22 -20 9z"/>
<path d="M2345 4881 c-11 -5 -23 -7 -27 -4 -5 2 -8 -3 -8 -11 0 -11 9 -16 30
-16 23 0 30 4 30 20 0 11 -1 20 -2 19 -2 0 -12 -4 -23 -8z"/>
<path d="M2637 4882 c-10 -2 -17 -11 -15 -20 2 -12 17 -16 68 -16 56 -1 65 2
68 18 3 14 0 17 -12 13 -9 -4 -16 -1 -16 5 0 7 -4 7 -12 1 -15 -11 -50 -13
-58 -4 -3 4 -13 5 -23 3z"/>
<path d="M2116 4871 c-3 -5 3 -11 14 -14 13 -3 20 0 20 9 0 15 -26 19 -34 5z"/>
<path d="M2160 4860 c0 -13 6 -16 25 -12 14 2 25 10 25 17 0 7 -11 13 -25 13
-17 0 -25 -6 -25 -18z"/>
<path d="M2380 4866 c0 -17 49 -27 72 -15 11 6 18 6 18 1 0 -13 60 0 63 13 1
6 -30 11 -75 12 -60 2 -78 -1 -78 -11z"/>
<path d="M2550 4865 c0 -9 11 -13 30 -13 17 1 30 6 30 13 0 7 -13 12 -30 13
-19 0 -30 -4 -30 -13z"/>
<path d="M7512 4864 c-16 -12 -15 -13 6 -14 12 0 25 -1 29 -2 4 -2 9 4 11 13
3 19 -22 21 -46 3z"/>
<path d="M7576 4872 c-3 -6 1 -15 8 -21 8 -7 17 -8 20 -3 3 6 -1 15 -8 21 -8
7 -17 8 -20 3z"/>
<path d="M7638 4873 c-26 -7 -22 -18 7 -21 14 -2 33 -4 42 -5 18 -2 23 3 23
23 0 10 -40 12 -72 3z"/>
<path d="M7730 4865 c0 -8 5 -15 10 -15 6 0 10 7 10 15 0 8 -4 15 -10 15 -5 0
-10 -7 -10 -15z"/>
<path d="M7767 4873 c-12 -11 -8 -23 8 -23 8 0 15 7 15 15 0 16 -12 20 -23 8z"/>
<path d="M7817 4873 c-17 -16 -3 -23 43 -23 38 0 50 4 50 15 0 11 -11 15 -43
15 -24 0 -47 -3 -50 -7z"/>
<path d="M7927 4874 c-13 -13 -7 -23 13 -21 11 1 20 6 21 12 0 5 5 1 10 -10
l9 -20 -3 20 c-2 20 -36 33 -50 19z"/>
<path d="M7997 4873 c-3 -5 -2 -15 2 -22 7 -10 10 -10 16 -1 4 6 3 16 -3 22
-5 5 -12 6 -15 1z"/>
<path d="M2125 4820 c-5 -9 -4 -11 3 -6 7 4 12 1 12 -10 0 -11 6 -15 20 -11
10 3 21 0 23 -6 4 -14 27 0 27 17 0 8 -11 14 -25 14 -14 0 -25 -5 -25 -11 0
-6 -6 -3 -13 8 -11 14 -16 15 -22 5z"/>
<path d="M2224 4809 c-9 -15 16 -18 116 -16 59 1 93 6 90 12 -6 12 -198 16
-206 4z"/>
<path d="M2450 4804 c0 -6 22 -11 55 -11 38 0 55 4 55 13 0 8 -17 12 -55 11
-32 -1 -55 -7 -55 -13z"/>
<path d="M2570 4797 c0 -10 5 -15 11 -12 6 4 26 7 45 7 22 0 34 4 31 12 -2 6
-22 11 -45 11 -34 1 -42 -3 -42 -18z"/>
<path d="M2670 4807 c0 -8 7 -14 15 -14 8 0 15 6 15 14 0 7 -7 13 -15 13 -8 0
-15 -6 -15 -13z"/>
<path d="M7690 4805 c0 -8 7 -15 15 -15 8 0 15 7 15 15 0 8 -7 15 -15 15 -8 0
-15 -7 -15 -15z"/>
<path d="M7730 4806 c0 -10 20 -14 85 -14 47 0 85 3 85 7 0 16 -14 21 -27 10
-9 -9 -13 -8 -13 0 0 13 -88 10 -110 -4 -9 -5 -11 -4 -6 3 4 7 2 12 -3 12 -6
0 -11 -6 -11 -14z"/>
<path d="M7910 4805 c0 -8 7 -15 15 -15 8 0 15 6 15 13 0 9 2 9 8 0 10 -16 69
-14 69 3 0 17 -3 17 -28 4 -13 -7 -19 -7 -19 0 0 5 -13 10 -30 10 -20 0 -30
-5 -30 -15z"/>
<path d="M4637 4776 c-22 -17 -21 53 -19 -963 2 -870 1 -854 45 -805 16 17 17
94 17 900 0 928 1 901 -43 868z"/>
<path d="M2432 4771 c-7 -4 -31 -6 -54 -4 -30 3 -39 1 -36 -9 6 -16 84 -22 93
-7 4 6 12 3 21 -8 12 -16 13 -16 14 -2 0 22 -23 40 -38 30z"/>
<path d="M2200 4755 c0 -8 9 -15 20 -15 24 0 27 15 4 24 -22 9 -24 8 -24 -9z"/>
<path d="M2266 4763 c-14 -15 -3 -23 30 -23 22 0 34 4 32 11 -4 13 -52 21 -62
12z"/>
<path d="M2480 4755 c0 -8 7 -15 15 -15 8 0 15 7 15 15 0 8 -7 15 -15 15 -8 0
-15 -7 -15 -15z"/>
<path d="M2530 4755 c0 -12 13 -15 59 -15 33 0 63 5 66 10 7 11 5 12 -47 15
-22 1 -38 -3 -38 -8 0 -7 -4 -7 -12 1 -16 16 -28 15 -28 -3z"/>
<path d="M2670 4753 c0 -9 14 -13 45 -13 29 0 45 4 45 13 0 8 -16 12 -45 13
-31 0 -45 -4 -45 -13z"/>
<path d="M7563 4759 c-35 -13 -28 -19 22 -19 33 0 45 4 45 15 0 18 -16 20 -26
4 -4 -7 -9 -8 -13 -1 -3 6 -15 6 -28 1z"/>
<path d="M7656 4762 c-3 -3 -6 -11 -6 -17 0 -9 16 -11 52 -8 52 3 66 8 56 19
-8 7 -95 13 -102 6z"/>
<path d="M7811 4749 c5 -11 16 -16 25 -12 21 8 12 26 -14 28 -17 1 -19 -2 -11
-16z"/>
<path d="M7872 4763 c-18 -7 -4 -23 19 -23 12 0 19 5 17 12 -5 14 -18 18 -36
11z"/>
<path d="M7770 4750 c0 -5 5 -10 10 -10 6 0 10 5 10 10 0 6 -4 10 -10 10 -5 0
-10 -4 -10 -10z"/>
<path d="M7930 4750 c0 -5 7 -10 15 -10 8 0 15 5 15 10 0 6 -7 10 -15 10 -8 0
-15 -4 -15 -10z"/>
<path d="M7980 4750 c0 -5 9 -10 20 -10 11 0 20 5 20 10 0 6 -9 10 -20 10 -11
0 -20 -4 -20 -10z"/>
<path d="M2182 4704 c3 -17 21 -21 26 -6 1 5 -4 12 -13 16 -11 4 -15 1 -13
-10z"/>
<path d="M2274 4700 c-5 -11 -8 -12 -11 -2 -6 16 -43 16 -43 -1 0 -10 36 -13
163 -14 136 -2 164 1 164 13 0 16 1 16 -92 18 -38 1 -76 -3 -82 -8 -8 -5 -13
-5 -13 1 0 17 -79 10 -86 -7z"/>
<path d="M3083 4650 c0 -41 2 -58 4 -37 2 20 2 54 0 75 -2 20 -4 3 -4 -38z"/>
<path d="M7742 4703 c2 -14 13 -18 42 -18 42 0 60 19 26 28 -11 3 -20 1 -20
-4 0 -6 -8 -5 -19 1 -27 14 -33 13 -29 -7z"/>
<path d="M7840 4698 c0 -15 7 -18 37 -16 51 4 54 25 3 30 -33 3 -40 1 -40 -14z"/>
<path d="M7930 4696 c0 -9 9 -14 20 -13 11 1 20 7 20 14 0 7 -9 13 -20 13 -11
0 -20 -6 -20 -14z"/>
<path d="M7982 4698 c7 -19 35 -21 35 -3 0 8 -9 15 -19 15 -11 0 -18 -5 -16
-12z"/>
<path d="M3052 4660 c0 -14 2 -19 5 -12 2 6 2 18 0 25 -3 6 -5 1 -5 -13z"/>
<path d="M4500 4658 l-25 -20 -4 -829 c-2 -456 0 -845 3 -864 8 -39 24 -44 49
-17 16 17 17 92 17 880 0 473 -3 863 -8 865 -4 3 -18 -4 -32 -15z"/>
<path d="M7713 4654 c-19 -19 -16 -30 7 -30 21 0 25 12 12 32 -5 9 -10 8 -19
-2z"/>
<path d="M2270 4643 c0 -7 12 -14 28 -14 15 -1 38 -2 52 -3 14 -1 38 2 54 6
16 4 34 5 39 1 6 -4 57 -8 114 -10 87 -3 103 -1 103 12 0 9 -9 15 -22 16 -13
0 -57 2 -98 4 -41 1 -79 0 -84 -3 -14 -8 -65 -8 -60 0 2 3 -25 5 -61 5 -44 -2
-65 -6 -65 -14z"/>
<path d="M7533 4652 c-77 -4 -65 -20 17 -24 57 -2 70 0 68 11 -3 16 -12 17
-85 13z"/>
<path d="M7648 4653 c-29 -7 -20 -23 12 -23 20 0 30 5 30 15 0 15 -9 17 -42 8z"/>
<path d="M7760 4643 c0 -7 7 -13 15 -13 8 0 15 6 15 13 0 8 -7 14 -15 14 -8 0
-15 -6 -15 -14z"/>
<path d="M7816 4653 c-17 -18 1 -24 64 -22 47 1 70 6 70 14 0 12 -122 19 -134
8z"/>
<path d="M7966 4652 c-3 -6 -1 -14 5 -17 14 -9 20 -2 10 14 -6 8 -11 9 -15 3z"/>
<path d="M2232 4639 c2 -6 8 -10 13 -10 5 0 11 4 13 10 2 6 -4 11 -13 11 -9 0
-15 -5 -13 -11z"/>
<path d="M2310 4600 c-8 -5 -18 -6 -22 -4 -4 3 -8 -2 -8 -11 0 -12 8 -15 32
-13 33 3 48 22 25 31 -8 3 -20 1 -27 -3z"/>
<path d="M2368 4605 c-4 -6 -4 -16 0 -21 10 -16 42 -13 42 4 0 11 -3 12 -14 3
-11 -10 -15 -8 -18 6 -2 10 -6 14 -10 8z"/>
<path d="M7680 4602 c-5 -2 -10 -9 -10 -15 0 -14 78 -17 97 -4 6 4 14 3 18 -3
3 -6 14 -7 23 -2 9 4 43 7 75 6 80 -2 59 16 -22 20 -39 2 -61 -1 -61 -8 0 -7
-3 -7 -8 -1 -6 9 -89 14 -112 7z"/>
<path d="M2430 4586 c0 -10 14 -13 52 -12 73 3 77 26 4 26 -41 0 -56 -4 -56
-14z"/>
<path d="M2561 4592 c-34 -11 2 -19 94 -21 89 -1 105 1 105 14 0 14 -14 16
-94 13 -52 -1 -100 -4 -105 -6z"/>
<path d="M7487 4593 c-16 -15 -3 -19 63 -19 48 0 70 4 70 12 0 8 -18 12 -55
12 -32 -1 -55 -6 -55 -12 0 -6 -4 -6 -8 2 -5 7 -11 9 -15 5z"/>
<path d="M7634 4584 c3 -9 6 -18 6 -20 0 -3 5 -2 10 1 16 10 12 35 -6 35 -11
0 -14 -5 -10 -16z"/>
<path d="M7950 4590 c0 -5 5 -10 10 -10 6 0 10 5 10 10 0 6 -4 10 -10 10 -5 0
-10 -4 -10 -10z"/>
<path d="M2350 4539 c0 -5 3 -9 8 -10 4 0 16 -2 26 -4 11 -2 49 -5 85 -6 51
-2 67 1 69 12 2 11 -16 14 -93 15 -52 1 -95 -2 -95 -7z"/>
<path d="M2550 4528 c0 -14 5 -18 16 -14 9 3 33 6 54 6 22 0 40 5 43 13 4 11
-9 14 -54 15 -53 0 -59 -2 -59 -20z"/>
<path d="M7528 4542 c-10 -2 -18 -8 -18 -13 0 -14 68 -11 73 4 3 7 6 4 6 -6 1
-13 6 -17 20 -12 10 3 44 6 76 6 36 1 55 5 52 12 -3 10 -169 18 -209 9z"/>
<path d="M7750 4530 c0 -12 10 -15 41 -13 23 1 44 5 47 8 10 10 -5 16 -47 18
-31 2 -41 -1 -41 -13z"/>
<path d="M2316 4532 c-3 -5 1 -9 9 -9 8 0 12 4 9 9 -3 4 -7 8 -9 8 -2 0 -6 -4
-9 -8z"/>
<path d="M7850 4531 c0 -5 16 -9 35 -9 19 0 35 4 35 9 0 5 -16 9 -35 9 -19 0
-35 -4 -35 -9z"/>
<path d="M2052 4463 c26 -213 42 -311 54 -338 13 -28 14 -24 9 49 -3 43 -5
130 -5 193 0 110 -1 115 -26 138 -15 14 -30 25 -34 25 -3 0 -3 -30 2 -67z"/>
<path d="M2360 4489 c0 -5 5 -7 10 -4 6 3 17 -1 26 -9 18 -18 34 -21 34 -6 0
6 -12 15 -26 20 -33 13 -44 13 -44 -1z"/>
<path d="M2458 4493 c-27 -7 -21 -29 7 -29 17 0 25 5 25 18 0 18 -2 19 -32 11z"/>
<path d="M7480 4479 c0 -11 -4 -11 113 -13 72 -1 97 2 97 12 0 9 -27 12 -105
11 -58 0 -105 -5 -105 -10z"/>
<path d="M7700 4481 c0 -17 20 -23 34 -11 11 8 15 8 19 -2 4 -8 6 -7 6 5 1 12
-7 17 -29 17 -16 0 -30 -4 -30 -9z"/>
<path d="M7770 4481 c0 -5 7 -12 16 -15 24 -9 28 -7 14 9 -14 17 -30 20 -30 6z"/>
<path d="M7820 4476 c0 -10 7 -15 20 -13 21 3 40 17 22 17 -5 0 -17 3 -26 6
-11 4 -16 1 -16 -10z"/>
<path d="M2525 4431 c-14 -14 0 -22 33 -19 42 3 42 23 -1 23 -15 1 -30 -1 -32
-4z"/>
<path d="M7483 4426 c6 -17 97 -18 97 -1 0 11 -13 14 -50 14 -33 -1 -49 -6
-47 -13z"/>
<path d="M7590 4426 c0 -8 13 -13 30 -14 18 0 30 4 30 12 0 8 -13 13 -30 14
-18 0 -30 -4 -30 -12z"/>
<path d="M7660 4425 c0 -8 7 -15 15 -15 8 0 15 7 15 15 0 8 -7 15 -15 15 -8 0
-15 -7 -15 -15z"/>
<path d="M7700 4425 c0 -17 2 -18 24 -9 23 9 20 24 -4 24 -11 0 -20 -7 -20
-15z"/>
<path d="M7750 4431 c0 -11 26 -22 34 -14 12 12 5 23 -14 23 -11 0 -20 -4 -20
-9z"/>
<path d="M7800 4429 c0 -5 5 -7 10 -4 6 3 10 8 10 11 0 2 -4 4 -10 4 -5 0 -10
-5 -10 -11z"/>
<path d="M2460 4420 c0 -5 6 -10 14 -10 8 0 18 5 21 10 3 6 -3 10 -14 10 -12
0 -21 -4 -21 -10z"/>
<path d="M2500 4374 c0 -15 72 -13 77 2 3 8 -10 12 -37 11 -24 -1 -40 -6 -40
-13z"/>
<path d="M2603 4383 c-23 -9 -14 -22 14 -20 30 3 45 27 16 26 -10 0 -24 -3
-30 -6z"/>
<path d="M3083 4355 c0 -22 2 -30 4 -17 2 12 2 30 0 40 -3 9 -5 -1 -4 -23z"/>
<path d="M7590 4377 c0 -10 9 -14 25 -13 30 1 27 20 -3 24 -14 2 -22 -2 -22
-11z"/>
<path d="M7656 4376 c3 -8 12 -12 20 -9 21 8 17 23 -6 23 -13 0 -18 -5 -14
-14z"/>
<path d="M7710 4378 c0 -7 11 -13 24 -13 15 0 22 5 19 13 -3 6 -14 12 -24 12
-10 0 -19 -6 -19 -12z"/>
<path d="M2530 4323 c0 -13 5 -15 40 -15 147 0 190 3 190 15 0 9 -30 12 -115
12 -86 0 -115 -3 -115 -12z"/>
<path d="M7486 4333 c-14 -15 -3 -20 44 -22 38 0 50 3 50 14 0 8 -7 15 -16 15
-9 0 -12 -5 -8 -12 6 -10 4 -10 -7 -2 -16 12 -54 16 -63 7z"/>
<path d="M7590 4324 c0 -13 8 -15 35 -12 19 2 35 0 35 -4 0 -4 5 -8 10 -8 6 0
10 8 10 18 0 15 -9 19 -45 20 -35 2 -45 -1 -45 -14z"/>
<path d="M7700 4330 c0 -5 5 -10 10 -10 6 0 10 5 10 10 0 6 -4 10 -10 10 -5 0
-10 -4 -10 -10z"/>
<path d="M2260 4294 c1 -127 22 -344 40 -416 l22 -85 356 -354 c196 -195 401
-398 455 -452 57 -55 110 -100 125 -103 15 -3 90 -23 167 -45 184 -51 328 -81
367 -77 30 3 -3 38 -746 778 -427 426 -779 777 -781 779 -3 2 -5 -9 -5 -25z"/>
<path d="M2587 4274 c-16 -16 -5 -24 34 -24 28 0 39 4 37 13 -5 13 -60 22 -71
11z"/>
<path d="M2677 4273 c-16 -16 -4 -23 38 -23 31 0 45 4 45 14 0 15 -60 17 -60
1 0 -5 -4 -4 -8 3 -5 7 -11 9 -15 5z"/>
<path d="M3070 4102 c0 -115 -4 -182 -10 -182 -6 0 -10 -28 -10 -65 0 -52 3
-65 16 -65 8 0 13 -4 9 -9 -3 -5 -1 -12 5 -16 5 -3 9 9 8 30 -1 20 -5 38 -10
41 -4 3 -7 24 -6 47 l1 42 6 -45 c3 -25 5 54 4 174 -2 121 -5 221 -8 224 -3 3
-5 -76 -5 -176z"/>
<path d="M7482 4269 c6 -18 58 -21 58 -3 0 9 -11 14 -31 14 -19 0 -29 -5 -27
-11z"/>
<path d="M7550 4265 c0 -8 13 -13 35 -13 22 0 35 5 35 13 0 8 -13 13 -35 13
-22 0 -35 -5 -35 -13z"/>
<path d="M7631 4263 c0 -11 3 -13 6 -5 2 6 8 10 12 8 4 -3 13 -1 21 5 11 6 8
9 -12 9 -20 0 -28 -5 -27 -17z"/>
<path d="M2700 4213 c0 -19 6 -23 30 -23 17 0 30 5 30 10 0 10 -5 12 -32 14
-7 1 -16 6 -20 11 -4 6 -8 0 -8 -12z"/>
<path d="M2637 4214 c-10 -11 3 -24 24 -24 23 0 25 15 3 24 -19 7 -19 7 -27 0z"/>
<path d="M7520 4202 c0 -8 6 -12 15 -8 8 3 15 1 15 -3 0 -5 9 -7 20 -4 34 9
23 30 -15 30 -24 0 -35 -5 -35 -15z"/>
<path d="M2696 4161 c-4 -7 -5 -15 -2 -18 9 -9 19 4 14 18 -4 11 -6 11 -12 0z"/>
<path d="M2720 4156 c0 -10 9 -16 21 -16 24 0 21 23 -4 28 -10 2 -17 -3 -17
-12z"/>
<path d="M5644 4161 c-2 -2 -4 -18 -4 -35 0 -45 -26 -173 -49 -238 -26 -77
-111 -239 -121 -233 -23 14 -40 101 -34 176 7 76 6 78 -25 117 -36 46 -85 72
-136 72 -45 0 -80 -18 -124 -64 -27 -28 -35 -45 -39 -85 -6 -63 9 -101 59
-145 40 -37 91 -52 138 -43 26 6 30 3 44 -36 34 -90 38 -81 -90 -213 -252
-258 -563 -486 -840 -613 -29 -14 -53 -28 -53 -31 0 -4 19 -4 43 0 23 5 56 10
72 13 149 23 424 131 575 225 419 261 693 665 726 1074 l4 56 -71 4 c-39 2
-73 1 -75 -1z"/>
<path d="M2751 4104 c0 -11 3 -14 6 -6 3 7 2 16 -1 19 -3 4 -6 -2 -5 -13z"/>
<path d="M3882 4060 c0 -14 2 -19 5 -12 2 6 2 18 0 25 -3 6 -5 1 -5 -13z"/>
<path d="M7152 3890 c0 -19 2 -27 5 -17 2 9 2 25 0 35 -3 9 -5 1 -5 -18z"/>
<path d="M6045 3830 c-3 -5 -3 -10 2 -11 4 0 -2 -4 -14 -9 -13 -5 -23 -18 -23
-28 0 -11 -11 -64 -25 -118 -14 -53 -23 -100 -20 -102 2 -3 38 7 80 23 l75 27
0 113 0 114 -32 -10 c-41 -11 -41 -11 -33 1 3 6 4 10 1 10 -3 0 -8 -4 -11 -10z"/>
<path d="M7152 3815 c0 -16 2 -22 5 -12 2 9 2 23 0 30 -3 6 -5 -1 -5 -18z"/>
<path d="M6130 3780 c0 -5 5 -10 10 -10 6 0 10 5 10 10 0 6 -4 10 -10 10 -5 0
-10 -4 -10 -10z"/>
<path d="M5077 3728 c-5 -15 4 -381 10 -387 4 -6 73 60 73 71 0 4 21 27 47 50
100 91 125 124 117 154 -5 17 -16 22 -59 27 -63 6 -128 38 -151 72 -18 28 -30
32 -37 13z"/>
<path d="M4785 2527 c-11 -7 -36 -17 -55 -22 l-35 -11 -3 -146 -2 -147 39 -38
c21 -21 42 -47 45 -58 4 -11 20 -30 37 -43 l29 -24 0 251 c0 233 -1 251 -17
251 -10 0 -27 -6 -38 -13z"/>
<path d="M4598 2471 l-47 -16 3 -55 c4 -69 15 -112 27 -104 5 3 9 1 9 -4 0
-12 70 -92 81 -92 5 0 9 63 9 145 0 164 5 156 -82 126z"/>
<path d="M4488 2448 c-16 -5 -28 -15 -28 -21 0 -18 44 -77 58 -77 6 0 12 -5
12 -11 0 -5 3 -8 8 -6 12 8 2 127 -11 126 -7 0 -24 -5 -39 -11z"/>
</g>
</svg>
