<?xml version="1.0" standalone="no"?>
<!DOCTYPE svg PUBLIC "-//W3C//DTD SVG 20010904//EN"
 "http://www.w3.org/TR/2001/REC-SVG-20010904/DTD/svg10.dtd">
<svg version="1.0" xmlns="http://www.w3.org/2000/svg"
 width="512.000000pt" height="512.000000pt" viewBox="0 0 512.000000 512.000000"
 preserveAspectRatio="xMidYMid meet">
<metadata>
Created by potrace 1.14, written by Peter Selinger 2001-2017
</metadata>
<g transform="translate(0.000000,512.000000) scale(0.100000,-0.100000)"
fill="#000000" stroke="none">
<path d="M2309 4815 c-2 -2 -24 -6 -49 -8 -137 -16 -284 -49 -421 -95 -68 -23
-88 -35 -106 -62 -13 -18 -23 -42 -23 -53 0 -17 169 -430 271 -662 60 -136
109 -260 109 -275 0 -10 -7 -21 -15 -24 -11 -4 -33 18 -76 77 -50 69 -387 539
-501 699 -46 65 -84 82 -149 69 -15 -3 -198 -137 -259 -190 -117 -101 -187
-177 -192 -210 -8 -55 15 -82 182 -216 90 -71 170 -137 179 -145 9 -8 128
-104 264 -213 136 -110 251 -206 256 -214 13 -24 2 -52 -50 -123 -27 -36 -54
-73 -61 -84 -8 -10 -25 -18 -40 -18 -15 0 -140 63 -294 149 -355 198 -350 195
-419 233 -33 18 -89 50 -125 70 -149 86 -168 93 -213 78 -39 -12 -45 -19 -84
-98 -48 -96 -123 -316 -148 -434 -16 -73 -16 -81 -1 -112 9 -19 26 -39 38 -44
21 -8 176 -58 383 -123 467 -146 460 -143 460 -225 0 -39 -5 -56 -24 -76 -27
-28 -48 -34 -186 -51 -27 -4 -61 -8 -75 -10 -40 -6 -102 -14 -145 -19 -22 -3
-56 -8 -75 -11 -19 -3 -51 -7 -70 -9 -168 -21 -277 -40 -296 -52 -64 -42 -53
-131 53 -459 55 -172 68 -199 100 -220 44 -29 91 -20 248 50 17 8 124 52 240
100 116 47 224 92 240 100 62 28 141 57 162 60 27 3 60 -26 69 -60 10 -39 -17
-68 -123 -134 -54 -33 -102 -64 -108 -68 -5 -5 -71 -46 -145 -92 -134 -84
-228 -143 -327 -208 -41 -27 -55 -42 -63 -72 -13 -49 -9 -59 59 -151 149 -201
519 -523 616 -535 30 -4 41 0 69 28 28 26 722 1169 742 1221 13 33 -6 64 -58
97 -29 17 -73 47 -97 65 -24 19 -52 34 -62 34 -11 0 -54 -16 -96 -36 -126 -59
-144 -64 -174 -48 -32 16 -52 65 -40 97 5 13 40 46 79 75 41 30 74 64 82 82
14 33 12 43 -25 175 -24 81 -24 248 -1 335 63 235 223 416 440 495 153 57 149
50 161 288 3 59 7 131 10 160 2 29 7 95 10 147 3 52 8 122 10 155 4 62 12 179
20 325 3 47 7 108 10 135 2 28 7 100 11 161 l6 112 -29 32 c-25 28 -38 34 -80
36 -28 2 -52 2 -54 -1z m-748 -3265 c42 -23 55 -89 26 -129 -23 -31 -103 -100
-128 -109 -33 -12 -84 3 -104 30 -8 13 -15 39 -15 59 0 33 7 44 68 98 70 63
107 75 153 51z"/>
<path d="M2770 4796 c-55 -31 -55 -27 -54 -565 0 -273 3 -592 6 -710 8 -246 7
-243 98 -293 30 -17 75 -47 100 -67 51 -40 129 -122 130 -134 0 -16 68 -37 92
-28 62 24 82 92 49 166 -40 91 -63 50 304 544 442 595 425 571 425 606 0 42
-28 76 -103 127 -160 107 -390 220 -557 272 -47 15 -98 31 -115 36 -48 15
-235 50 -295 56 -37 3 -63 0 -80 -10z m394 -706 c14 -5 32 -22 40 -39 14 -25
14 -38 1 -110 -17 -98 -28 -119 -68 -136 -55 -23 -117 15 -122 75 -3 39 20
153 37 179 22 36 66 49 112 31z"/>
<path d="M4397 3667 c-20 -12 -200 -139 -400 -283 -199 -143 -457 -329 -573
-412 -116 -83 -217 -159 -225 -168 -11 -13 -14 -50 -12 -159 3 -162 -11 -231
-72 -362 -19 -40 -35 -84 -35 -97 0 -19 100 -169 130 -196 11 -10 387 -495
403 -521 15 -23 15 -27 1 -47 -29 -42 -44 -35 -189 93 -35 31 -44 39 -195 170
-63 54 -122 106 -131 115 -9 8 -38 33 -64 55 -26 22 -63 55 -83 73 -73 66 -89
68 -208 18 -75 -31 -202 -54 -284 -51 -55 2 -62 0 -69 -19 -13 -34 -2 -79 27
-108 21 -21 43 -30 96 -38 38 -6 82 -18 98 -28 35 -20 57 -66 53 -112 -1 -19
-6 -78 -9 -130 -4 -52 -9 -115 -11 -140 -3 -25 -7 -81 -10 -125 -3 -44 -8
-105 -10 -135 -3 -30 -7 -89 -10 -130 -3 -41 -7 -100 -10 -130 -6 -70 -13
-160 -21 -279 -3 -51 -7 -101 -9 -110 -6 -31 27 -83 61 -97 41 -17 167 -9 342
22 52 9 186 46 204 55 35 19 53 76 39 124 -36 114 -121 384 -161 510 -27 83
-61 189 -76 236 -30 95 -28 133 9 145 41 14 75 -4 100 -55 7 -14 82 -147 167
-296 84 -148 162 -286 173 -305 60 -107 72 -127 96 -153 50 -55 125 -29 326
114 106 75 120 92 120 143 0 36 -10 53 -71 131 -164 210 -160 200 -120 240 36
36 59 23 184 -101 174 -173 192 -172 342 11 204 250 355 552 440 877 22 85 22
87 4 125 -11 21 -30 43 -44 50 -14 6 -214 62 -445 123 -362 96 -482 128 -505
135 -3 1 -18 5 -35 9 -16 4 -38 10 -48 13 -10 2 -23 16 -28 31 -18 46 10 60
136 67 61 4 124 8 140 10 17 1 75 6 130 10 55 4 118 9 140 11 22 1 83 6 135 9
52 3 111 8 130 10 19 2 82 7 140 11 127 7 136 9 167 29 48 32 51 80 18 285
-37 224 -119 469 -223 667 -43 82 -96 101 -165 60z m-275 -1829 c77 -57 92
-86 71 -140 -34 -85 -113 -71 -235 41 -48 43 -35 121 24 146 42 17 62 10 140
-47z"/>
</g>
</svg>
